<?xml version="1.0" standalone="no"?>
<!DOCTYPE svg PUBLIC "-//W3C//DTD SVG 20010904//EN"
 "http://www.w3.org/TR/2001/REC-SVG-20010904/DTD/svg10.dtd">
<svg version="1.0" xmlns="http://www.w3.org/2000/svg"
 width="1472.000000pt" height="832.000000pt" viewBox="0 0 1472.000000 832.000000"
 preserveAspectRatio="xMidYMid meet">

<g transform="translate(0.000000,832.000000) scale(0.100000,-0.100000)"
fill="#000000" stroke="none">
<path d="M3290 5703 c-44 -104 -96 -202 -107 -207 -8 -3 -10 1 -6 11 5 14 4
14 -19 -1 -23 -15 -165 -35 -252 -36 l-38 0 4 50 c3 28 1 53 -3 56 -8 4 -10
-2 -29 -73 -9 -34 -15 -43 -40 -48 -34 -8 -40 -25 -9 -25 16 0 19 -4 14 -17
-12 -28 -110 -364 -175 -605 -33 -119 -93 -333 -134 -475 -40 -142 -82 -291
-92 -330 -10 -40 -21 -73 -24 -73 -7 0 -105 298 -135 415 -27 103 -46 163
-145 470 -32 99 -70 223 -85 275 -45 162 -52 183 -83 268 l-31 83 25 9 c14 6
24 18 24 29 0 10 3 34 6 52 5 33 5 33 -27 -16 -31 -47 -33 -49 -42 -27 -11 24
-30 31 -21 7 5 -13 -20 -15 -190 -15 -208 0 -222 3 -198 46 9 16 10 15 16 -4
5 -14 15 -22 29 -22 22 1 22 1 2 12 -26 15 -36 30 -30 46 3 8 0 12 -7 10 -7
-3 -14 -14 -16 -26 -6 -38 -19 -24 -52 56 -55 133 -68 124 -20 -14 l30 -86
-30 5 c-16 4 -32 2 -35 -3 -7 -11 39 -25 54 -16 5 4 12 2 16 -4 4 -6 -10 -10
-35 -10 -49 0 -46 -12 9 -30 40 -13 51 -31 56 -95 1 -11 4 -27 7 -35 64 -180
195 -601 269 -865 34 -121 88 -296 121 -390 84 -240 188 -587 232 -775 28
-117 90 -313 108 -340 8 -13 9 -13 4 1 -109 358 -131 439 -117 439 10 0 151
-484 143 -492 -4 -3 -167 -8 -363 -11 -196 -2 -361 -7 -368 -11 -6 -4 -11 -12
-11 -19 0 -8 3 -8 12 1 9 9 108 12 383 12 l371 0 12 -32 c28 -69 40 -118 31
-124 -5 -3 -9 -11 -9 -17 0 -8 3 -8 9 2 12 18 23 -1 28 -48 5 -49 20 -61 33
-27 5 15 8 31 5 36 -3 4 2 13 10 20 8 7 24 44 36 82 l20 69 177 -6 c176 -6
371 -21 405 -31 11 -4 17 0 17 10 0 9 -6 16 -12 16 -106 3 -571 30 -578 35 -6
3 -10 9 -10 13 0 4 123 6 273 3 149 -2 376 2 502 9 127 7 322 16 435 20 147 6
122 7 -90 2 -379 -9 -1096 -9 -1105 0 -4 3 5 48 18 100 14 51 31 120 37 153
11 58 49 196 171 630 59 210 160 498 167 477 7 -21 -58 -344 -93 -465 -32
-107 -135 -434 -212 -672 -15 -44 -37 -104 -50 -134 -30 -68 -22 -79 10 -14
30 60 65 164 161 468 101 319 142 475 166 620 44 268 178 784 266 1029 36 100
79 220 96 269 16 48 35 87 41 87 8 0 -12 -74 -50 -192 -34 -106 -85 -269 -113
-363 -49 -161 -73 -222 -94 -236 -5 -4 -6 -17 -3 -30 3 -13 -5 -68 -18 -124
-13 -55 -29 -132 -34 -170 -6 -39 -14 -91 -19 -117 -5 -27 -6 -48 -2 -48 3 0
17 60 29 133 30 171 51 259 63 255 5 -2 32 -59 58 -126 27 -67 53 -128 57
-135 4 -6 8 -23 8 -36 0 -13 6 -26 13 -28 6 -3 12 3 12 12 0 20 111 138 156
166 28 17 220 90 234 89 3 -1 -11 -9 -30 -20 -42 -23 -34 -26 12 -6 18 8 54
18 80 21 59 8 72 25 21 26 -37 1 -37 2 -8 8 38 9 152 -12 170 -30 21 -21 52
-126 60 -199 l7 -66 -124 -11 c-98 -9 -150 -20 -245 -51 -180 -60 -274 -114
-392 -226 -111 -107 -134 -171 -147 -411 -7 -137 3 -189 59 -288 50 -89 168
-234 201 -246 47 -18 49 -13 11 20 -41 36 -69 74 -79 107 -7 20 -4 19 26 -8
52 -48 177 -107 244 -114 66 -8 271 9 324 26 19 6 38 16 42 22 6 8 8 7 8 -1 0
-18 30 -4 64 29 37 35 17 38 -20 3 -15 -14 -32 -25 -38 -25 -6 0 -4 5 4 10 8
5 11 10 6 10 -5 0 -17 -7 -26 -15 -9 -8 -32 -17 -51 -21 -33 -6 -34 -6 -9 8
59 34 116 72 131 90 26 29 25 31 45 -69 l6 -31 -58 -7 c-61 -7 -159 -34 -151
-41 2 -3 17 0 33 6 51 20 177 32 186 17 14 -21 9 -26 -29 -29 -21 -2 295 -3
702 -2 531 0 746 4 760 12 13 7 144 14 365 20 l345 10 -356 -2 -357 -2 11 23
c5 12 18 25 27 28 18 6 58 45 46 45 -4 0 -21 -7 -39 -16 -31 -15 -31 -15 -15
2 10 10 31 17 50 17 18 0 39 7 47 14 12 12 12 17 -3 31 -10 10 -16 12 -16 4 0
-16 -27 -16 -33 1 -3 7 -6 5 -6 -6 -1 -16 -65 -56 -75 -46 -7 7 12 1071 20
1102 4 17 12 26 19 23 7 -2 25 2 40 10 16 8 37 12 48 8 13 -4 17 -2 13 5 -9
14 -41 14 -67 1 -33 -18 -21 4 16 29 20 13 33 26 31 29 -3 2 -19 -6 -36 -18
-17 -12 -33 -21 -35 -19 -2 2 20 19 48 38 29 19 46 27 38 18 -19 -23 -7 -21
37 7 27 17 57 25 108 29 39 3 87 12 107 20 34 15 35 16 34 69 l-2 53 55 0 55
0 2 -405 c2 -567 9 -755 27 -815 20 -66 106 -208 145 -240 17 -15 30 -31 28
-37 -3 -15 99 -40 173 -42 83 -1 248 20 266 34 7 7 21 10 31 8 10 -2 -34 -21
-97 -42 -88 -30 -129 -38 -175 -37 -82 1 -63 2 -515 -7 l-405 -8 423 -2 c232
0 427 -4 433 -8 6 -3 63 -3 127 2 72 4 105 10 87 13 -25 5 -11 11 80 35 61 15
124 29 140 29 29 2 30 1 27 -40 -2 -37 0 -43 18 -43 19 0 26 23 21 67 -2 18
48 24 114 12 93 -15 148 -26 171 -34 12 -4 25 -2 28 4 4 6 23 11 42 11 19 0
33 4 30 9 -3 4 50 14 117 20 67 7 125 16 130 20 4 4 -7 17 -24 30 -35 26 -149
194 -149 220 0 9 -5 22 -11 28 -23 23 -39 192 -41 448 -2 201 0 267 11 290 12
27 14 28 21 10 4 -11 10 -78 13 -150 8 -158 34 -369 47 -373 6 -2 10 -8 10
-13 0 -6 -4 -8 -9 -5 -12 8 4 -61 36 -154 33 -98 44 -119 99 -186 25 -30 44
-58 41 -60 -2 -2 -34 27 -70 65 -37 38 -67 66 -67 63 1 -17 117 -134 135 -136
11 -2 19 -9 17 -16 -1 -6 2 -9 8 -5 5 3 10 2 10 -3 0 -10 115 -91 134 -94 6
-1 -41 -5 -104 -8 l-115 -6 120 -2 c67 -1 144 -9 175 -17 77 -21 252 -19 401
4 68 11 133 23 144 27 39 15 138 105 166 150 l21 34 29 -43 c28 -43 74 -93
121 -133 26 -22 155 -70 165 -61 2 3 -20 13 -51 23 -31 10 -54 19 -52 22 3 2
36 -6 74 -17 40 -13 102 -23 145 -24 41 -1 73 -6 70 -11 -3 -4 -44 -7 -92 -5
-47 1 -104 1 -126 -1 -22 -2 28 -6 110 -9 188 -7 585 -2 585 7 0 4 -87 6 -192
4 -106 -2 -209 0 -228 4 -32 6 -26 8 57 25 50 9 101 23 113 29 12 6 35 12 51
12 18 1 25 4 18 9 -8 4 10 18 49 38 37 19 94 63 146 113 l86 83 2 -100 c0 -55
1 -107 0 -115 0 -8 4 -22 9 -32 5 -10 7 -28 4 -41 -5 -19 -11 -22 -41 -19 -21
3 -34 0 -34 -7 0 -6 13 -11 30 -11 l30 0 -14 -37 c-19 -52 -27 -103 -16 -103
5 0 12 10 16 23 6 19 39 69 66 102 5 5 6 -13 3 -40 l-6 -50 17 45 c9 25 19 48
22 52 4 3 79 9 167 12 88 3 194 10 235 15 238 32 380 57 425 75 17 7 66 42
110 77 77 61 202 147 318 219 31 19 59 41 62 48 3 8 -6 6 -23 -6 -15 -11 -38
-25 -51 -32 -19 -10 -22 -10 -15 2 6 10 148 212 159 226 2 2 15 -34 30 -80 53
-160 108 -244 247 -373 46 -42 82 -80 81 -84 -1 -4 6 -7 15 -8 9 -1 49 -6 87
-12 92 -14 252 -12 345 3 71 11 65 12 -130 12 -172 -1 -212 2 -249 17 -41 16
-151 83 -151 92 0 2 28 -8 63 -22 34 -14 98 -37 142 -50 74 -23 91 -24 220
-20 155 6 176 12 389 111 54 25 105 46 112 46 9 0 14 -12 14 -32 0 -25 3 -29
10 -18 5 8 10 27 10 41 0 29 21 50 100 103 30 20 49 36 42 36 -19 0 -72 -29
-113 -61 -43 -34 -49 -35 -49 -11 0 10 18 33 41 51 51 42 43 53 -12 16 -33
-23 -42 -26 -49 -15 -6 10 0 19 21 32 16 10 32 24 35 32 6 15 -16 54 -48 91
-22 24 -122 165 -185 260 -46 67 -65 74 -45 15 10 -28 8 -32 -40 -74 -104 -91
-313 -187 -373 -172 -43 11 -75 49 -125 151 -39 79 -46 103 -37 112 15 16 260
128 336 154 30 11 93 40 139 65 46 25 81 41 78 36 -7 -12 -122 -82 -135 -82
-6 0 -11 -4 -11 -10 0 -5 4 -10 9 -10 12 0 137 76 166 100 11 10 68 45 128 79
85 49 113 60 135 55 24 -6 22 -3 -15 25 -27 20 -40 37 -36 46 7 20 0 19 -58
-11 l-51 -25 -51 20 c-29 11 -80 30 -114 42 -93 32 -87 44 70 123 72 36 148
69 167 73 19 3 42 9 51 14 21 11 41 -24 33 -59 -4 -21 -3 -24 5 -12 6 9 11 10
11 3 0 -6 3 -20 6 -30 5 -15 4 -16 -5 -3 -9 12 -10 9 -5 -15 4 -16 11 -37 15
-45 6 -10 7 -4 3 15 -4 17 -4 27 0 24 4 -4 11 -33 17 -65 6 -33 12 -66 13 -74
2 -8 8 -28 15 -44 11 -27 20 -65 57 -226 9 -41 41 -145 70 -230 64 -184 104
-321 134 -450 13 -52 33 -129 45 -172 l23 -76 -27 -6 c-31 -7 -403 -14 -1101
-21 -543 -6 -892 -14 -900 -23 -3 -2 90 -2 205 2 116 3 575 9 1022 13 l811 6
22 -52 c27 -61 37 -62 15 -1 -8 23 -15 44 -15 45 0 8 57 -10 66 -21 10 -13 12
-12 18 1 3 8 12 15 21 15 11 0 15 -10 15 -36 0 -41 -17 -121 -31 -148 -8 -14
-7 -17 3 -14 7 3 20 38 29 79 17 79 18 78 40 -25 11 -50 14 -55 21 -35 5 13 5
25 0 28 -14 9 -25 86 -17 121 5 21 12 30 27 30 18 0 19 -4 14 -35 -17 -97 -14
-105 10 -32 l25 78 52 -5 c72 -8 399 -26 456 -25 88 1 25 8 -179 19 -113 5
-229 13 -258 17 l-53 6 6 41 c4 23 8 50 9 61 3 18 10 20 75 17 91 -4 94 13 4
24 -78 10 -79 12 -38 99 13 28 53 162 89 300 110 411 266 879 351 1050 48 96
90 210 75 200 -6 -4 -10 -10 -10 -15 0 -5 -13 -37 -28 -72 -16 -35 -35 -78
-42 -96 -16 -42 -33 -53 -24 -15 14 62 41 132 48 126 4 -4 4 0 1 9 -9 23 24
128 40 128 7 0 22 3 32 7 16 6 16 5 4 -10 -7 -9 -20 -17 -27 -17 -8 0 -14 -4
-14 -10 0 -15 15 -12 43 10 20 16 40 20 101 20 44 0 76 4 76 10 0 6 -32 10
-75 10 -43 0 -75 4 -75 10 0 6 -10 10 -22 10 -19 0 -20 2 -8 10 8 5 26 10 40
11 14 0 43 7 65 14 39 14 37 14 -43 9 l-83 -5 6 38 c5 33 4 36 -7 21 -7 -9
-21 -31 -31 -48 l-17 -32 -83 6 c-181 13 -250 11 -280 -8 -20 -14 -25 -22 -17
-31 7 -9 2 -37 -19 -96 -44 -129 -111 -343 -111 -356 0 -7 -4 -13 -9 -13 -4 0
-5 19 0 43 15 76 8 84 -10 12 -10 -38 -32 -101 -50 -138 -17 -38 -31 -74 -31
-80 1 -7 11 11 23 38 62 139 85 148 43 17 -28 -90 -69 -256 -86 -352 -18 -99
-25 -102 -45 -19 -9 41 -30 121 -45 179 -16 58 -42 166 -59 240 -30 125 -59
235 -117 435 -31 104 -30 117 8 154 44 43 31 47 -25 7 l-47 -33 -142 -2 c-79
-1 -160 -3 -180 -5 -24 -3 -41 1 -49 10 -10 12 11 14 137 16 l149 2 -124 6
-125 5 -20 65 c-13 43 -21 58 -24 44 -1 -12 4 -39 12 -59 9 -21 16 -41 16 -46
0 -18 -30 -8 -45 15 -18 27 -21 67 -10 154 8 70 -5 84 -23 25 -22 -76 -24
-117 -7 -163 26 -72 29 -84 18 -77 -5 3 -23 2 -39 -2 l-29 -8 25 -11 c14 -6
32 -13 41 -15 9 -3 19 -21 23 -42 4 -20 10 -43 13 -51 10 -28 -17 -13 -78 41
-65 58 -155 107 -229 124 -25 6 -100 14 -166 17 -99 6 -131 4 -173 -10 -139
-45 -305 -191 -378 -333 -43 -82 -83 -197 -104 -301 -7 -34 -16 -62 -20 -62
-6 0 -3 88 6 175 2 22 12 65 21 95 24 77 24 397 0 524 -11 64 -13 92 -5 96 7
5 5 9 -6 13 -9 4 -32 41 -51 84 -55 120 -65 130 -188 189 -205 97 -235 102
-746 113 -415 8 -429 11 -446 80 -5 21 -15 36 -24 36 -8 0 -13 -7 -11 -15 14
-51 13 -70 -3 -70 -13 0 -15 -4 -6 -19 5 -11 10 -35 10 -53 0 -24 3 -29 10
-18 5 8 10 12 12 10 9 -14 33 -58 46 -83 26 -51 41 -179 40 -332 l-1 -150 -13
170 c-14 174 -55 393 -62 327 -2 -18 1 -137 7 -265 6 -143 7 -233 1 -237 -5
-3 -16 -22 -25 -43 -8 -20 -18 -37 -21 -37 -3 0 -42 18 -87 39 -110 53 -187
71 -326 78 -130 6 -243 -7 -323 -37 -102 -38 -246 -177 -268 -259 -6 -22 -15
-43 -20 -46 -5 -3 -24 23 -42 57 -39 74 -135 180 -192 212 -64 37 -140 51
-271 51 -169 -1 -308 -44 -426 -133 -80 -60 -183 -206 -230 -325 -12 -28 -26
-63 -32 -77 l-10 -25 -7 30 c-6 22 -8 10 -9 -42 -1 -82 -18 -170 -33 -180 -8
-4 -9 83 -3 308 4 173 9 448 10 611 l2 298 24 19 c13 11 21 23 17 27 -5 4 -17
-1 -28 -11 -20 -18 -20 -17 -21 18 -1 21 -3 42 -4 47 -1 6 -3 22 -4 38 -2 24
-3 25 -11 7 -4 -11 -5 -103 -2 -205 4 -102 6 -216 6 -255 1 -161 -17 -805 -22
-800 -3 3 -9 191 -13 417 -5 227 -13 447 -18 488 -5 42 -13 131 -17 198 l-7
122 38 34 c21 20 42 33 47 30 4 -3 8 2 8 10 0 9 18 34 40 56 37 37 44 60 20
60 -5 0 -38 -25 -73 -55 -36 -30 -90 -65 -121 -79 -52 -23 -66 -25 -194 -23
l-137 2 -3 -82 c-3 -92 -10 -99 -54 -56 -37 35 -46 24 -13 -16 26 -30 26 -31
6 -31 -12 0 -21 -5 -21 -10 0 -6 15 -9 33 -8 l32 3 5 -175 c3 -96 3 -186 0
-200 l-6 -25 -167 -3 -166 -2 -3 246 c-2 135 -1 249 2 254 3 4 29 15 58 24 28
10 52 22 52 26 0 5 -19 3 -42 -4 -70 -22 -72 -22 -76 -3 -2 9 19 48 48 88 82
113 50 96 -55 -28 -14 -18 -66 -54 -113 -79 -129 -69 -333 -194 -363 -221 -24
-22 -26 -28 -16 -58 9 -31 11 -33 23 -17 7 9 15 14 19 10 4 -4 10 -63 12 -132
5 -121 5 -126 -15 -126 -15 0 -21 9 -26 35 -8 41 -26 47 -23 8 l2 -28 -160 -5
c-157 -5 -161 -6 -224 -38 -34 -18 -65 -31 -68 -28 -14 14 16 52 69 87 68 43
69 49 5 19 -57 -28 -71 -39 -96 -80 -11 -19 -21 -28 -21 -19 0 8 7 24 15 35
22 29 19 55 -3 28 -15 -17 -33 -22 -102 -27 -50 -3 -110 -14 -147 -28 -49 -18
-68 -20 -95 -13 l-33 10 50 37 c28 20 77 51 110 68 33 18 54 34 47 37 -15 5
-145 -66 -224 -121 -44 -31 -62 -38 -82 -33 -19 5 -26 13 -26 31 0 13 -5 27
-10 30 -6 4 -9 9 -6 13 2 4 0 16 -5 27 -6 16 -8 13 -8 -15 -1 -27 -7 -38 -26
-47 -14 -6 -25 -8 -25 -4 0 4 -74 5 -164 3 -171 -5 -256 2 -256 20 0 5 7 7 16
4 15 -6 15 -4 2 16 -9 13 -22 23 -29 23 -15 0 -15 -13 -3 -54 6 -22 5 -23 -19
-19 -33 6 -35 -5 -5 -26 22 -15 22 -19 20 -223 -2 -115 -7 -289 -12 -388 -5
-99 -12 -310 -16 -470 -3 -159 -7 -303 -9 -320 -2 -16 -4 -43 -4 -58 -1 -16
-5 -26 -11 -22 -6 4 -10 -12 -10 -42 1 -56 12 -44 29 32 13 60 31 419 31 639
0 110 3 157 10 150 12 -12 16 -206 13 -661 l-3 -323 -39 0 c-64 0 -64 -5 -66
660 -1 628 -4 665 -57 826 -31 94 -95 162 -202 214 -128 63 -187 75 -366 75
-147 -1 -160 -2 -257 -33 -56 -18 -105 -37 -108 -43 -4 -5 17 0 45 11 74 29
74 25 0 -16 -72 -40 -126 -79 -182 -133 -21 -19 -40 -32 -44 -29 -8 9 27 68
41 68 5 1 28 17 50 37 37 34 28 30 -33 -13 -12 -9 -24 -15 -26 -13 -5 6 68
254 145 490 78 241 67 227 168 230 27 1 21 4 -22 9 -32 4 -61 10 -64 14 -9 9
39 50 103 87 76 43 57 48 -35 9 -40 -17 -75 -29 -78 -26 -3 3 10 51 30 106 37
102 35 139 -3 53z m-40 -223 c0 -5 -5 -10 -11 -10 -5 0 -7 5 -4 10 3 6 8 10
11 10 2 0 4 -4 4 -10z m6312 -97 c62 -59 152 -154 201 -212 149 -179 101 -154
-98 52 -124 128 -211 224 -228 253 -21 36 22 4 125 -93z m-2724 81 l52 -7
-107 -53 c-60 -30 -109 -54 -110 -54 -2 0 -3 27 -3 60 l0 60 58 0 c31 0 81 -3
110 -6z m-3728 -191 c-32 -98 -72 -216 -88 -263 -16 -47 -37 -115 -47 -152
-10 -37 -21 -66 -24 -64 -3 2 -7 -7 -7 -21 -1 -13 -8 -32 -16 -41 -8 -9 -20
-42 -27 -72 -8 -30 -17 -59 -21 -65 -3 -5 -19 -53 -34 -105 -31 -103 -51 -144
-67 -134 -7 4 -8 -8 -5 -33 3 -21 3 -29 -1 -18 -3 11 -12 29 -19 40 -14 20
-15 20 -20 -2 -3 -12 -13 -24 -21 -28 -12 -4 -13 -2 -6 7 6 7 9 23 8 35 -1 13
3 19 10 16 7 -2 15 2 18 10 4 11 0 13 -14 10 -38 -10 -8 34 35 50 11 4 16 13
12 22 -3 9 4 21 20 31 13 9 22 19 20 22 -3 3 -12 -1 -21 -8 -11 -10 -15 -10
-15 0 0 6 9 14 20 17 20 5 28 23 10 23 -5 0 10 18 33 41 54 53 30 42 -35 -15
-15 -13 -24 -27 -20 -32 4 -4 1 -4 -5 0 -17 10 -40 -4 -24 -14 9 -5 7 -11 -4
-20 -14 -12 -16 -12 -15 1 4 23 0 39 -7 38 -20 -3 -34 2 -28 11 3 6 4 10 1 10
-2 0 -12 3 -22 7 -11 4 -15 3 -10 -5 3 -6 -3 -16 -14 -22 -16 -9 -20 -8 -20 4
0 9 6 13 13 10 7 -2 13 4 14 16 1 11 -2 20 -6 20 -15 0 -4 45 12 48 9 2 17 8
17 14 0 5 7 8 14 5 10 -4 13 -1 9 8 -3 9 4 18 21 25 40 15 31 20 -26 16 -37
-3 -47 -1 -35 5 21 12 23 33 3 26 -10 -4 -13 -1 -10 8 3 7 12 16 20 19 17 7
18 23 2 29 -7 2 0 2 16 -1 16 -2 26 0 23 4 -8 14 47 74 73 79 36 7 74 35 62
47 -11 11 -114 -43 -113 -58 1 -5 -7 -9 -18 -10 -16 -1 -18 2 -8 17 6 10 21
20 34 24 23 5 33 25 13 25 -5 0 -10 -4 -10 -10 0 -5 -5 -10 -11 -10 -6 0 -9 7
-5 15 3 8 1 15 -3 15 -5 0 -11 -7 -15 -15 -6 -17 -26 -20 -26 -4 0 5 5 7 11 4
6 -4 9 0 7 11 -2 12 3 19 14 19 9 0 20 4 24 8 4 4 -2 7 -14 7 -21 0 -31 23
-14 34 4 2 9 19 10 36 3 33 34 84 45 74 3 -3 16 1 29 10 12 9 18 16 12 16 -5
0 -16 -6 -23 -12 -11 -11 -14 -10 -18 0 -4 9 -9 10 -18 2 -14 -11 15 110 40
165 7 17 19 50 27 75 15 52 20 54 188 64 l111 7 -24 -48 c-14 -26 -39 -91 -57
-143 -18 -52 -36 -96 -41 -98 -4 -2 -6 -9 -3 -16 3 -8 -2 -21 -11 -30 -9 -9
-11 -16 -5 -16 6 0 8 -5 3 -12 -9 -15 -10 -20 -12 -49 0 -11 -5 -17 -11 -14
-6 4 -7 -1 -3 -11 5 -13 3 -16 -10 -11 -14 5 -15 3 -4 -15 9 -16 9 -22 -1 -25
-6 -3 -10 -8 -8 -12 7 -11 -15 -102 -23 -96 -5 2 -17 -2 -27 -11 -18 -14 -18
-15 4 -9 16 5 22 2 22 -10 0 -10 -5 -13 -12 -9 -10 6 -10 4 0 -8 9 -11 10 -23
2 -43 -8 -20 -7 -26 2 -23 7 3 16 25 19 49 4 24 30 121 59 214 29 94 58 190
65 215 31 111 90 240 109 240 2 0 -23 -80 -54 -177z m3855 140 c-110 -90 -312
-194 -281 -145 12 20 297 182 306 175 3 -3 -8 -16 -25 -30z m3200 18 c237 -11
298 -23 414 -87 65 -35 91 -64 139 -154 49 -91 69 -158 81 -270 10 -83 10 -82
6 40 -3 94 -2 119 6 100 7 -16 8 -71 5 -150 -3 -69 -9 -343 -12 -610 l-6 -484
-50 -52 c-28 -29 -56 -50 -63 -48 -7 3 -16 1 -20 -5 -11 -19 -27 -12 -20 9 4
11 2 20 -4 20 -6 0 -11 -6 -11 -14 0 -8 -7 -16 -15 -20 -8 -3 -12 -12 -9 -21
4 -10 0 -15 -12 -14 -11 0 -14 3 -6 6 6 2 9 9 6 14 -3 6 -11 6 -20 -2 -7 -6
-20 -9 -29 -5 -8 3 -14 1 -12 -4 3 -12 -36 -70 -48 -70 -5 0 -4 5 3 12 7 7 12
18 12 26 0 12 -3 12 -15 2 -8 -7 -15 -8 -15 -3 0 14 71 74 84 70 10 -3 36 16
36 27 0 22 -78 -16 -107 -52 -7 -9 -13 -12 -13 -6 0 10 42 53 100 104 l35 30
-33 -13 c-35 -14 -102 -72 -102 -88 0 -5 -5 -9 -10 -9 -7 0 -7 6 -1 18 5 10 9
27 8 37 -1 11 3 19 11 17 15 -3 15 0 2 33 -10 26 1 60 25 77 5 4 6 10 2 14 -4
4 -14 -1 -22 -12 -13 -17 -14 -5 -15 111 0 72 -3 193 -5 270 -3 77 -7 254 -9
393 -3 229 -2 252 13 248 31 -10 91 -14 95 -7 7 11 -11 34 -21 28 -19 -12
-123 42 -194 100 -41 32 -95 74 -122 92 -110 75 -309 147 -344 125 -18 -11
-23 -57 -12 -117 l6 -38 -36 43 c-20 23 -62 72 -94 108 l-58 65 61 3 c84 4 77
27 -9 27 -59 0 -64 2 -121 49 -33 26 -60 50 -60 53 0 6 274 -1 605 -16z
m-8337 1 c18 -3 15 -39 -4 -46 -9 -3 -73 -3 -143 0 -69 4 -135 7 -146 7 -17 1
-44 22 -45 37 0 5 309 6 338 2z m62 -27 c0 -8 -4 -17 -10 -20 -6 -4 -10 5 -10
20 0 15 4 24 10 20 6 -3 10 -12 10 -20z m5118 -77 c1 -57 6 -204 12 -328 5
-124 10 -451 10 -727 0 -472 -1 -503 -17 -503 -16 -1 -16 -2 -2 -13 13 -9 17
-41 23 -147 4 -74 9 -157 12 -185 6 -46 5 -48 -9 -30 -31 43 -37 95 -43 390
-4 207 -10 302 -18 307 -8 6 -8 8 0 8 7 0 14 9 17 20 4 15 0 20 -16 21 -17 1
-18 2 -4 6 11 3 17 14 17 35 0 31 0 31 -22 12 -25 -22 -16 -1 16 35 l21 24
-29 -7 c-26 -6 -28 -6 -16 9 7 9 18 14 25 12 7 -3 11 8 12 29 1 19 -1 34 -3
34 -2 0 -13 -15 -24 -32 -24 -40 -26 -29 -4 18 9 19 20 31 25 28 5 -3 8 44 8
108 -1 80 -4 101 -9 73 -4 -22 -8 -37 -9 -33 0 3 -16 -8 -34 -25 -19 -18 -57
-54 -85 -80 -29 -27 -49 -53 -46 -59 4 -6 2 -8 -4 -5 -5 4 -30 -11 -54 -33
-23 -22 -44 -36 -46 -30 -2 5 4 17 12 26 9 8 16 20 16 26 0 5 8 17 18 26 10
10 13 14 7 11 -28 -16 -42 -16 -54 3 -7 11 -8 18 -4 15 5 -3 8 13 7 36 -1 23
-7 43 -13 45 -21 7 -11 23 12 18 l22 -6 -22 11 c-20 10 -23 21 -24 73 -1 34
-3 117 -5 185 -2 96 0 129 12 145 8 11 14 25 14 31 0 5 -6 1 -12 -10 -11 -19
-13 -17 -19 15 -5 24 -3 42 7 58 11 16 11 22 2 20 -15 -4 -22 108 -7 117 5 4
6 12 2 18 -5 7 -8 29 -8 50 l0 38 112 59 c63 34 135 82 165 110 29 27 53 49
54 50 1 0 2 -46 2 -102z m-768 73 c0 -5 -25 -22 -56 -38 -31 -15 -75 -45 -98
-66 -22 -21 -53 -43 -68 -49 -16 -5 -25 -15 -21 -21 3 -5 1 -7 -5 -3 -5 3 -23
-4 -39 -17 -32 -26 -80 -57 -88 -57 -3 0 -5 6 -5 13 0 8 24 27 53 42 28 16 78
47 111 69 51 36 207 134 214 136 1 0 2 -4 2 -9z m-4404 -69 c-20 -32 -22 -41
-11 -46 9 -3 12 0 9 8 -3 8 -1 17 5 20 11 7 41 -20 41 -37 0 -7 -4 -6 -10 3
-9 13 -12 13 -23 -1 -10 -12 -16 -13 -37 -3 -18 10 -28 10 -38 1 -10 -7 -10
-13 -3 -15 16 -5 3 -22 -17 -22 -15 0 -15 2 -2 10 8 5 11 10 6 10 -5 0 -2 7 5
16 12 14 11 16 -6 12 -11 -2 -19 -10 -17 -17 1 -7 -2 -10 -7 -6 -6 3 -8 20 -4
38 l6 32 -32 -40 c-43 -53 -45 -54 -37 -25 6 23 6 23 -7 8 -16 -20 -37 -24
-37 -7 0 5 5 7 10 4 16 -10 11 21 -5 35 -12 10 -13 16 -4 26 8 10 8 14 1 14
-6 0 -18 -10 -27 -22 -13 -20 -17 -21 -26 -8 -9 13 -10 12 -5 -2 10 -31 -8
-18 -25 17 l-16 35 34 0 c23 0 32 -4 27 -12 -4 -7 -3 -8 5 -4 17 11 61 15 56
5 -3 -4 0 -11 5 -14 7 -5 5 -12 -7 -20 -20 -15 -21 -13 31 -29 8 -3 17 2 20
10 5 12 1 14 -17 10 -12 -3 -16 -3 -9 0 6 3 10 9 7 14 -7 12 56 21 70 10 13
-11 40 11 28 23 -3 4 6 7 20 7 15 0 27 -6 28 -12 0 -10 2 -10 6 0 2 6 9 10 14
6 5 -3 9 0 9 7 0 7 3 10 6 7 3 -4 -6 -24 -20 -46z m4418 -227 c-4 -115 -10
-217 -15 -225 -5 -8 -9 95 -9 236 0 138 3 254 7 258 17 17 22 -70 17 -269z
m-4554 255 c0 -5 -10 -10 -22 -9 -22 0 -22 1 -3 9 11 5 21 9 23 9 1 1 2 -3 2
-9z m259 -140 c23 -68 51 -158 62 -200 12 -41 47 -154 79 -250 64 -193 83
-260 130 -460 18 -74 52 -200 76 -280 25 -80 43 -152 41 -160 -4 -20 -76 166
-125 325 -23 72 -71 227 -108 345 -37 118 -78 262 -92 320 -13 58 -47 179 -74
270 -28 91 -51 175 -52 187 0 11 -4 19 -7 17 -4 -2 -10 3 -13 12 -3 8 -2 12 4
9 6 -3 10 0 10 7 0 37 33 -30 69 -142z m1192 119 c-5 -13 -10 -19 -10 -12 -1
15 10 45 15 40 3 -2 0 -15 -5 -28z m3068 -234 l1 -245 -25 0 c-26 0 -30 -6
-16 -29 9 -14 65 -19 261 -25 112 -3 110 2 48 -123 -50 -102 -69 -113 -192
-113 -70 0 -86 -3 -86 -15 0 -8 9 -20 19 -27 17 -10 19 -20 14 -82 -6 -79 -7
-81 -23 -71 -9 5 -9 9 -1 14 6 4 -6 8 -26 8 -28 1 -43 -6 -71 -33 -19 -19 -41
-34 -49 -34 -12 0 -12 3 1 16 21 21 20 27 -3 15 -10 -6 -31 -10 -47 -10 -16 1
-40 -2 -54 -7 -23 -7 -24 -6 -11 9 12 15 11 17 -3 17 -9 0 -16 4 -16 9 0 5 -8
12 -17 14 -10 2 -5 3 11 1 16 -3 27 -1 23 2 -3 4 1 13 9 21 8 9 12 18 9 22 -4
3 -12 -2 -19 -12 -7 -9 -23 -17 -36 -17 -19 0 -20 2 -10 15 9 10 9 15 1 15 -6
0 -11 7 -11 16 0 8 4 13 9 9 5 -3 13 0 17 6 4 7 3 9 -4 5 -6 -3 -13 -2 -17 4
-3 5 -1 10 6 10 8 0 5 5 -5 13 -17 12 -16 14 8 25 14 6 26 16 26 22 0 5 0 13
0 18 0 4 -4 7 -9 7 -5 0 -12 3 -16 7 -4 4 -14 4 -23 1 -11 -5 -13 -3 -7 8 8
12 6 12 -8 0 -9 -7 -24 -11 -32 -7 -8 3 -15 1 -15 -5 0 -6 -5 -9 -11 -7 -7 2
-12 44 -12 118 -1 63 1 113 4 110 3 -3 14 2 24 10 11 9 16 10 11 3 -11 -19 39
-17 54 2 10 12 10 18 0 30 -7 8 -10 22 -6 30 3 9 2 14 -3 11 -11 -7 -21 69
-21 165 l0 78 47 32 c25 18 42 26 38 18 -5 -8 3 -2 18 14 14 15 30 27 36 27 5
0 16 6 23 13 11 10 179 117 185 117 1 0 2 -110 2 -245z m-4597 -70 c38 -121
73 -224 78 -230 4 -5 11 -21 14 -35 4 -15 -2 -8 -14 15 -22 42 -181 510 -179
529 1 22 33 -64 101 -279z m8008 158 c58 -50 130 -113 160 -141 30 -29 58 -52
63 -52 14 0 7 -245 -20 -700 -4 -58 -8 -97 -10 -87 -3 9 -12 18 -21 18 -16 1
-16 2 0 6 11 3 17 18 20 49 3 47 -13 57 -18 10 -4 -42 -14 -45 -14 -4 0 20 7
41 15 48 8 7 15 16 15 21 0 5 -7 6 -15 3 -8 -4 -15 -1 -15 6 0 18 -28 42 -35
30 -3 -5 -1 -10 4 -10 6 0 11 -5 11 -11 0 -6 -7 -9 -15 -5 -8 3 -15 1 -15 -4
0 -5 9 -12 21 -15 l21 -7 -23 -24 c-16 -17 -26 -21 -35 -13 -9 7 -19 7 -33 0
-13 -7 -22 -8 -26 -1 -3 5 -1 10 4 10 7 0 7 7 -1 20 -11 18 -14 18 -24 5 -6
-8 -21 -15 -33 -15 -12 0 -19 -4 -16 -10 3 -5 -1 -10 -9 -10 -9 0 -16 2 -16 4
0 2 28 31 61 65 34 34 60 63 57 66 -2 2 -16 -6 -30 -20 -29 -27 -45 -32 -71
-20 -17 7 -17 9 -1 26 9 10 21 16 25 13 5 -3 9 -1 9 5 0 18 -18 21 -34 5 -9
-8 -16 -11 -16 -5 0 6 -7 11 -16 11 -11 0 -13 -6 -9 -19 3 -11 1 -22 -5 -26
-6 -3 -8 -11 -5 -16 4 -5 1 -9 -5 -9 -9 0 -10 90 -7 348 5 307 1 411 -18 542
-5 29 -3 33 7 20 7 -9 60 -57 118 -107z m-8025 97 c-3 -5 -15 -10 -26 -10 -11
0 -17 5 -14 10 3 6 15 10 26 10 11 0 17 -4 14 -10z m9150 -85 c14 -27 18 -40
8 -27 -49 61 -73 96 -73 106 0 18 36 -26 65 -79z m-9150 55 c-3 -4 6 -11 19
-14 18 -4 23 -11 19 -26 -8 -31 -31 -46 -46 -30 -9 10 -9 11 1 6 6 -4 12 -2
12 3 0 6 -7 11 -15 11 -8 0 -15 4 -15 9 0 4 11 6 25 3 14 -2 25 0 25 6 0 5 -6
10 -12 9 -33 -1 -48 4 -48 16 0 7 9 13 20 14 11 1 18 -2 15 -7z m145 -33 c13
-5 13 -6 0 -6 -9 -1 -22 5 -28 11 -10 10 -15 10 -21 0 -5 -8 -12 -14 -17 -14
-5 1 -8 -6 -6 -15 3 -13 1 -13 -11 -2 -17 15 -11 25 25 44 18 9 25 9 33 0 6
-6 17 -14 25 -18z m84 18 c26 -20 37 -19 30 3 -5 14 -4 14 6 -2 10 -15 14 -16
21 -5 6 10 8 5 7 -14 -1 -15 -14 -38 -27 -50 l-25 -22 16 26 c19 30 13 45 -9
24 -22 -22 -34 -18 -27 9 4 16 1 25 -11 30 -12 4 -15 1 -11 -12 3 -9 2 -21 -2
-27 -10 -14 -46 -19 -37 -6 3 6 14 11 23 11 14 0 15 2 3 9 -12 8 -12 12 -2 25
16 19 21 19 45 1z m-114 -40 c0 -8 -4 -15 -10 -15 -5 0 -7 7 -4 15 4 8 8 15
10 15 2 0 4 -7 4 -15z m8245 -10 c29 -13 29 -13 5 -14 -38 -1 -68 9 -74 26 -6
16 11 13 69 -12z m-8226 -8 c-13 -29 -62 -59 -83 -51 -11 4 -17 -2 -22 -21 -5
-20 -9 -23 -15 -13 -12 17 -11 31 0 23 5 -3 12 3 16 14 3 11 12 25 21 32 12
10 13 9 8 -4 -4 -12 -1 -14 15 -10 11 3 18 9 15 14 -3 5 2 6 10 3 8 -3 19 3
26 15 15 29 22 27 9 -2z m-99 -17 c-23 -33 -40 -39 -40 -14 0 8 4 13 9 10 4
-3 16 3 26 14 27 30 29 24 5 -10z m110 -9 c-7 -14 -6 -21 3 -24 6 -3 2 -6 -10
-6 -28 -1 -28 3 -6 29 22 25 27 26 13 1z m47 3 c2 -5 -4 -19 -12 -29 -16 -19
-16 -19 -5 3 7 15 7 22 0 22 -5 0 -10 5 -10 11 0 13 22 7 27 -7z m112 -16 c-5
-10 -14 -18 -20 -18 -6 0 -7 -5 -3 -12 4 -7 3 -8 -5 -4 -9 6 -9 11 0 22 9 11
9 14 0 14 -7 0 -10 4 -6 9 3 6 14 9 24 8 16 -1 17 -5 10 -19z m3921 8 c0 -21
-20 -30 -33 -17 -9 9 -8 14 3 21 21 14 30 12 30 -4z m-3990 -5 c0 -6 -4 -13
-10 -16 -5 -3 -10 1 -10 9 0 9 5 16 10 16 6 0 10 -4 10 -9z m8290 -31 c94 -47
210 -132 210 -153 0 -5 -5 -5 -12 1 -23 19 -141 83 -145 78 -4 -4 76 -54 143
-90 68 -36 68 -35 70 -375 1 -169 5 -394 9 -502 8 -217 0 -276 -53 -372 -37
-70 -218 -256 -316 -326 -97 -69 -112 -78 -102 -63 4 6 2 21 -4 32 -9 16 -8
25 1 36 6 8 7 14 2 14 -13 0 -13 -2 -18 240 -3 118 -6 291 -8 383 -3 102 -8
172 -15 179 -8 8 -10 -81 -9 -308 2 -404 -13 -630 -35 -509 -11 61 -9 724 2
772 10 44 26 316 37 641 3 106 8 190 10 188 9 -8 12 -90 22 -611 11 -537 27
-835 44 -835 5 0 7 14 3 31 -10 51 -24 463 -32 899 -3 223 -10 428 -14 455 -4
28 -6 53 -4 56 2 4 18 10 36 13 31 7 32 8 11 16 -14 6 -23 18 -24 32 -1 26 -3
39 -18 86 l-10 32 77 -3 c63 -3 89 -10 142 -37z m-8465 -16 c-9 -9 -19 -13
-23 -10 -3 4 0 11 8 16 24 15 33 11 15 -6z m155 6 c0 -5 -4 -10 -10 -10 -5 0
-10 5 -10 10 0 6 5 10 10 10 6 0 10 -4 10 -10z m95 1 c-3 -6 3 -15 12 -21 14
-9 15 -10 2 -7 -9 3 -22 0 -29 -6 -10 -10 -12 -8 -6 6 3 10 6 23 6 28 0 5 5 9
11 9 5 0 8 -4 4 -9z m-175 -11 c0 -5 -5 -10 -11 -10 -5 0 -7 5 -4 10 3 6 8 10
11 10 2 0 4 -4 4 -10z m-66 -25 c-4 -8 -1 -15 6 -15 9 0 10 -3 1 -13 -6 -8 -8
-16 -5 -20 3 -3 -1 -4 -10 -3 -22 3 -32 16 -13 16 20 0 23 16 5 23 -10 4 -9 8
2 16 20 14 20 14 14 -4z m70 -3 c14 3 26 4 26 3 0 0 -15 -14 -32 -31 -18 -16
-27 -22 -20 -14 16 19 15 30 -3 30 -8 0 -15 8 -15 18 0 13 2 14 9 3 5 -8 19
-12 35 -9z m7721 -156 c7 -138 6 -148 -10 -142 -9 3 -18 6 -19 6 -2 0 1 24 6
53 6 28 8 96 5 150 -3 55 -1 95 3 90 4 -4 11 -75 15 -157z m-7588 139 c0 -8
-4 -15 -9 -15 -10 0 -11 14 -1 23 9 10 10 9 10 -8z m-52 -12 c-2 -10 -4 -19
-4 -20 -1 -1 -12 2 -26 7 -15 6 -26 6 -30 0 -4 -6 -11 -10 -17 -10 -21 0 14
29 40 33 15 2 30 5 34 6 3 0 5 -7 3 -16z m92 -15 c-3 -8 -6 -5 -6 6 -1 11 2
17 5 13 3 -3 4 -12 1 -19z m-57 -2 c0 -2 -8 -10 -17 -17 -16 -13 -17 -12 -4 4
13 16 21 21 21 13z m45 -16 c3 -5 1 -10 -4 -10 -6 0 -11 5 -11 10 0 6 2 10 4
10 3 0 8 -4 11 -10z m-209 -24 c-1 -20 -4 -22 -19 -14 -18 9 -18 10 0 23 10 8
19 15 19 15 1 0 1 -11 0 -24z m64 14 c0 -5 -5 -10 -11 -10 -5 0 -7 5 -4 10 3
6 8 10 11 10 2 0 4 -4 4 -10z m-50 -65 c-12 -13 -27 -22 -31 -19 -14 9 -10 24
5 18 7 -3 16 2 19 10 4 9 12 16 18 16 7 0 2 -11 -11 -25z m9151 -245 c0 -118
-4 -226 -9 -240 -9 -25 -9 -25 -17 9 -4 18 -4 140 0 270 10 296 26 272 26 -39z
m-8021 225 c0 -2 -10 -9 -22 -15 -22 -11 -22 -10 -4 4 21 17 26 19 26 11z
m-960 -9 c0 -3 -4 -8 -10 -11 -5 -3 -10 -1 -10 4 0 6 5 11 10 11 6 0 10 -2 10
-4z m-166 -23 c-5 -5 -12 -12 -16 -18 -4 -6 -8 -2 -8 8 0 9 7 17 17 17 9 0 12
-3 7 -7z m7261 -24 c-123 -14 -262 -51 -327 -87 -38 -20 -68 -39 -68 -43 0 -4
26 8 58 27 31 19 66 37 77 39 11 2 65 14 120 26 145 32 318 31 395 -3 30 -14
74 -33 98 -43 51 -23 51 -23 -25 -148 -69 -113 -103 -158 -114 -151 -5 3 -6
10 -3 16 5 7 2 9 -8 5 -9 -3 -32 6 -53 20 -104 70 -219 87 -308 44 -27 -13
-55 -34 -64 -47 -8 -13 -18 -22 -22 -20 -4 3 -8 -7 -9 -21 -2 -32 -11 -45 -23
-37 -6 3 -5 12 3 22 11 13 11 14 -2 10 -9 -3 -14 -15 -13 -29 l3 -24 -18 22
c-16 21 -41 20 -45 -3 -1 -5 -9 -9 -18 -8 -10 0 -15 -5 -12 -13 3 -7 0 -13 -6
-13 -13 0 -71 -56 -71 -70 0 -21 -30 -9 -31 13 l0 22 -9 -22 c-10 -26 -45 -31
-53 -9 -3 8 3 24 14 37 23 26 24 36 4 36 -8 0 -11 -5 -8 -10 4 -6 -1 -8 -11
-4 -9 4 -14 3 -11 -2 3 -5 0 -13 -6 -16 -7 -5 -9 1 -7 16 2 17 11 26 33 30 17
4 23 7 13 8 -13 1 -15 9 -12 44 2 23 1 36 -2 29 -3 -6 -10 -10 -15 -7 -5 4 -5
13 0 23 5 9 14 31 21 48 12 33 35 60 94 112 21 18 35 36 32 39 -6 6 -84 -60
-124 -106 l-24 -26 22 43 c25 50 94 120 165 166 83 54 126 65 290 75 115 7
167 0 80 -10z m-5470 6 c-27 -11 -96 -22 -89 -15 5 4 18 10 29 13 24 6 74 7
60 2z m237 -11 c144 -24 269 -90 318 -168 29 -48 59 -138 75 -226 18 -100 31
-350 18 -359 -5 -3 -16 -16 -24 -28 -16 -23 -16 -23 -18 10 -1 17 -3 43 -5 57
-2 14 -4 49 -5 78 -1 33 -5 51 -11 47 -5 -3 -10 -1 -10 4 0 6 5 11 10 11 6 0
10 5 10 11 0 6 -7 9 -15 5 -17 -6 -21 9 -5 19 14 9 12 21 -6 39 -8 9 -11 16
-5 16 6 0 11 11 11 25 0 20 -5 25 -24 25 -13 0 -27 6 -29 13 -3 6 -6 2 -6 -10
-1 -13 -4 -23 -8 -24 -5 0 -21 -2 -38 -4 -21 -3 -26 -2 -15 5 13 8 13 10 -1
10 -9 0 -24 -9 -33 -19 -17 -19 -17 -20 11 -23 l28 -4 -25 -11 c-14 -7 -21
-12 -17 -12 12 -1 -14 -26 -35 -34 -20 -7 -21 -6 -12 17 3 9 12 16 20 16 8 0
14 5 14 10 0 15 -16 12 -34 -6 -15 -14 -16 -14 -16 5 0 12 6 21 15 21 8 0 15
6 15 13 0 15 56 50 69 43 4 -3 14 0 22 7 8 7 13 11 11 10 -2 -1 -15 2 -28 7
-18 7 -24 6 -24 -4 0 -7 -13 -16 -28 -19 -16 -3 -33 -16 -39 -28 l-10 -23 -5
22 c-4 12 -2 22 3 22 5 0 9 5 9 11 0 5 -5 7 -11 3 -7 -4 -10 -1 -7 7 3 8 -2
20 -11 26 -14 11 -14 14 -1 23 8 5 11 10 6 10 -6 0 -1 7 10 16 18 15 18 15 -4
10 -18 -3 -22 -1 -18 11 3 8 6 18 6 22 0 5 12 7 28 4 26 -3 26 -3 5 8 -31 16
-53 -3 -48 -42 l4 -30 -34 29 c-18 17 -42 35 -52 40 -21 12 -18 17 17 26 21 6
22 5 7 -4 -9 -6 -15 -15 -12 -21 9 -14 58 0 78 23 22 25 22 39 0 31 -11 -4
-14 -3 -9 5 9 16 -7 15 -22 0 -9 -9 -12 -8 -12 4 0 9 4 19 10 23 14 9 110 13
115 4 3 -3 -1 -7 -8 -6 -35 1 -52 -4 -39 -11 18 -12 73 -2 66 12 -4 6 6 -2 22
-18 18 -19 24 -31 16 -34 -15 -5 3 -32 22 -32 17 0 36 -56 24 -68 -6 -6 -6
-12 1 -16 6 -4 11 -1 11 6 0 10 3 9 10 -2 6 -9 5 -17 -3 -22 -8 -5 -6 -8 6 -8
25 0 21 17 -19 95 -53 103 -153 197 -224 211 -21 5 -27 10 -19 15 8 5 -9 14
-47 25 -43 13 -89 17 -172 16 -117 -2 -145 -7 -121 -24 11 -8 11 -9 -1 -5 -8
2 -15 10 -15 17 0 8 34 21 90 36 111 28 113 28 227 8z m2616 9 c-10 -2 -28 -2
-40 0 -13 2 -5 4 17 4 22 1 32 -1 23 -4z m5291 -14 c30 -5 73 -18 95 -29 58
-28 174 -119 204 -160 l26 -35 -31 28 c-26 24 -34 27 -52 18 -17 -10 -26 -6
-57 23 -26 25 -34 39 -30 54 5 16 -1 23 -34 36 -45 18 -90 21 -90 6 0 -5 -7
-7 -16 -3 -11 4 -12 8 -4 13 18 11 -3 20 -29 13 -17 -4 -19 -8 -9 -14 10 -7 9
-9 -4 -9 -10 0 -18 3 -18 8 0 15 -120 11 -191 -7 -233 -59 -376 -201 -457
-451 -43 -132 -57 -224 -56 -375 1 -228 42 -423 118 -554 28 -48 60 -99 71
-112 28 -33 110 -99 124 -99 6 0 11 -4 11 -9 0 -16 101 -58 180 -75 61 -13 95
-14 185 -7 147 13 262 55 385 143 50 35 56 37 67 22 16 -22 14 -25 -54 -59
-32 -16 -69 -37 -82 -47 -26 -19 -50 -27 -191 -64 -258 -66 -468 -25 -616 121
-96 95 -163 269 -200 519 -23 158 -15 385 20 516 52 201 128 370 164 370 6 0
9 6 6 13 -8 21 135 150 200 182 88 43 208 51 365 24z m-5079 4 c0 -5 -28 -7
-62 -5 -113 5 -125 9 -30 10 50 1 92 -1 92 -5z m1495 -33 c81 -30 174 -125
233 -236 23 -45 42 -85 42 -89 0 -12 -41 33 -92 100 -101 133 -186 183 -366
215 -39 7 -72 18 -72 23 0 6 -5 6 -12 -1 -20 -16 -73 -24 -104 -16 -29 8 -28
8 16 21 73 20 281 10 355 -17z m5105 20 c18 -6 4 -8 -47 -9 -43 -1 -73 3 -73
9 0 12 84 12 120 0z m-7950 -7 c-1 -14 -300 -203 -320 -203 -11 0 -29 46 -22
56 4 5 27 18 52 29 51 22 89 45 74 45 -6 0 -14 -3 -18 -7 -9 -10 -79 -33 -85
-28 -4 5 1 7 149 60 58 20 112 41 120 46 19 11 50 12 50 2z m1422 -50 c-2 -32
-3 -406 -2 -832 1 -634 -1 -776 -12 -783 -10 -7 -10 -11 0 -15 14 -5 17 -133
3 -133 -5 0 -23 -3 -40 -6 l-31 -6 0 66 c0 60 2 68 23 76 18 7 19 9 3 9 -17 1
-18 7 -12 64 16 161 26 614 21 995 -4 338 -2 435 9 494 13 67 31 128 39 128 1
0 1 -26 -1 -57z m-942 41 c32 -7 32 -7 25 -53 -4 -25 -8 -53 -9 -63 -2 -29
-74 -98 -104 -99 -50 -3 -68 -6 -90 -18 -22 -12 -30 -31 -12 -31 5 0 7 -15 5
-34 -3 -22 1 -38 10 -46 20 -17 8 -38 -26 -45 -16 -4 -29 -10 -29 -15 0 -5
-10 -12 -22 -15 -13 -4 -47 -23 -76 -42 -29 -19 -56 -32 -59 -29 -3 3 -6 26
-7 51 -1 25 -6 44 -11 43 -6 -2 -10 -56 -11 -128 -1 -69 -3 -367 -5 -662 -3
-422 -7 -538 -16 -538 -10 0 -13 24 -13 85 0 76 -2 84 -17 79 -15 -5 -15 -4
-4 4 12 9 14 41 12 179 -2 92 -5 184 -8 203 -7 48 -10 403 -4 415 7 14 9 35
16 158 4 91 3 107 -10 107 -8 0 -15 4 -15 10 0 5 -7 7 -15 4 -8 -4 -15 -10
-15 -15 0 -4 7 -6 16 -2 14 5 14 3 3 -16 -16 -24 -29 -28 -29 -7 0 9 -7 12
-22 9 -19 -4 -20 -3 -8 6 18 13 1 15 -19 2 -10 -6 -5 -12 18 -22 32 -14 42
-39 16 -39 -8 0 -15 5 -15 11 0 5 -8 9 -18 7 -11 -2 -27 3 -36 11 -15 12 -20
11 -44 -12 -16 -15 -34 -27 -40 -27 -7 0 -15 -6 -18 -14 -3 -8 -12 -17 -20
-20 -21 -8 1 31 26 47 11 6 20 20 20 29 0 20 16 25 22 7 2 -6 20 5 41 23 40
37 47 51 20 41 -12 -5 -15 -2 -10 10 5 14 1 13 -23 -5 -17 -12 -30 -26 -30
-31 0 -6 9 -2 20 8 11 10 23 16 26 13 3 -3 -5 -15 -17 -27 -17 -15 -25 -18
-30 -9 -6 9 -14 7 -30 -7 -20 -18 -22 -18 -16 -2 4 9 2 17 -4 17 -5 0 -12 -6
-15 -14 -3 -8 -12 -12 -20 -9 -11 4 -14 23 -13 82 1 42 7 82 13 90 9 12 8 13
-3 6 -11 -6 -13 -2 -9 17 2 13 -2 30 -9 37 -19 17 -12 24 75 83 42 28 112 78
155 111 43 32 80 57 81 55 2 -1 6 -44 8 -94 6 -101 -4 -139 -49 -186 -15 -15
-24 -31 -21 -34 4 -3 28 16 53 43 37 38 50 60 61 106 27 115 67 160 169 193
43 14 182 18 235 8z m6633 -5 c-7 -7 -42 -13 -80 -15 -37 -2 -96 -6 -130 -9
-40 -4 -63 -2 -63 5 0 5 24 10 53 11 28 0 75 4 102 9 81 12 131 12 118 -1z
m-5723 -6 c0 -5 -7 -37 -16 -73 -14 -56 -16 -166 -19 -755 -2 -450 -7 -702
-14 -725 -8 -28 -10 -4 -8 113 1 81 0 147 -2 147 -3 0 -24 -18 -47 -41 -41
-40 -43 -41 -92 -34 -48 6 -51 9 -76 59 -15 29 -30 75 -34 102 -9 61 -8 250 3
607 7 250 10 277 25 277 9 0 45 -3 79 -6 68 -8 64 -1 46 -76 -4 -16 -3 -28 3
-28 5 0 12 15 15 34 3 19 26 86 51 149 25 62 46 126 46 140 0 36 22 117 32
117 4 0 8 -3 8 -7z m-1910 -35 c0 -28 -1 -28 -64 -28 -35 0 -70 -2 -78 -3 -7
-2 -10 -2 -5 0 4 3 7 11 7 19 0 10 -4 12 -12 7 -7 -4 -47 -8 -89 -8 -57 -1
-80 -5 -93 -17 -18 -19 -22 -33 -5 -22 15 9 89 12 83 3 -2 -4 3 -10 12 -13 8
-3 12 -2 9 4 -4 6 6 10 22 11 l28 1 -25 8 c-15 5 -18 8 -8 9 23 1 49 -10 43
-19 -2 -4 30 -9 73 -12 43 -2 84 -8 91 -12 12 -8 10 -188 -5 -346 -8 -76 -10
-81 -31 -73 -14 6 -14 8 3 20 11 8 15 17 9 21 -15 11 -37 53 -31 60 3 3 6 0 6
-6 0 -7 5 -12 10 -12 6 0 10 6 10 13 0 21 -32 16 -38 -5 -2 -10 -9 -18 -14
-18 -5 0 -6 5 -2 11 5 9 -1 10 -22 5 -27 -7 -28 -6 -9 7 11 9 23 13 27 11 4
-2 9 0 13 6 3 5 1 10 -5 10 -6 0 -8 5 -5 11 4 6 14 8 22 5 8 -3 11 -1 8 4 -3
6 1 13 9 16 9 3 16 16 16 28 0 19 -3 18 -29 -11 -16 -18 -33 -33 -38 -33 -6 0
-18 -9 -28 -20 -10 -11 -24 -20 -31 -20 -7 0 -16 -9 -19 -21 -5 -16 -10 -18
-21 -8 -11 9 -18 8 -31 -2 -16 -13 -17 -12 -4 4 8 10 20 16 27 13 7 -3 16 -1
19 4 3 4 0 10 -6 12 -6 2 0 12 12 23 18 16 21 17 16 3 -4 -10 -1 -15 9 -14 19
3 20 7 8 26 -11 18 -36 20 -47 3 -4 -7 -17 -18 -29 -24 -17 -9 -14 -2 12 35
36 50 39 52 60 34 12 -11 12 -10 0 7 -8 11 -16 22 -17 24 -1 2 -11 -7 -22 -20
-11 -13 -20 -19 -21 -12 0 8 -7 10 -17 6 -17 -7 -17 -6 0 11 25 25 21 29 -14
11 -54 -28 -41 -10 22 30 50 32 58 40 44 48 -12 7 -22 4 -34 -8 -13 -14 -13
-16 -1 -11 8 4 7 1 -3 -8 -11 -8 -25 -12 -33 -9 -9 3 -14 0 -12 -7 2 -7 -3
-14 -10 -16 -7 -1 -8 0 -3 2 5 3 7 14 4 24 -4 13 0 20 10 20 8 0 17 12 20 26
4 25 3 26 -34 20 -31 -5 -39 -3 -39 9 0 8 -4 15 -10 15 -5 0 -9 -10 -9 -22 0
-13 -2 -122 -5 -243 -8 -291 -15 -673 -17 -964 -1 -130 -5 -252 -9 -271 -4
-19 -8 48 -8 150 -1 102 -4 354 -6 560 -3 206 -7 506 -8 665 l-3 290 198 0
197 0 0 -27z m2995 22 c-3 -5 -11 -10 -17 -10 -20 0 -101 -52 -91 -59 6 -3 -4
-17 -21 -30 l-31 -25 24 27 c14 15 20 27 14 27 -24 0 -153 -139 -206 -220 -98
-152 -133 -238 -152 -373 -3 -27 -9 -59 -11 -70 -3 -12 -6 -68 -8 -124 -3 -84
-1 -101 10 -96 8 3 14 0 14 -6 0 -6 -4 -11 -10 -11 -6 0 -11 -30 -11 -67 -1
-63 -2 -65 -10 -28 -4 22 -11 105 -15 185 -6 133 -4 156 21 280 53 268 150
437 315 549 30 21 69 43 85 49 39 14 108 15 100 2z m4362 -32 c11 -24 24 -55
27 -71 4 -15 18 -53 32 -84 14 -31 32 -74 40 -95 12 -35 12 -39 0 -35 -8 3
-17 1 -19 -6 -2 -7 -6 -10 -9 -7 -7 7 -108 315 -108 329 0 24 17 9 37 -31z
m326 0 c8 -24 25 -77 37 -118 11 -41 35 -122 51 -180 17 -58 41 -159 54 -225
13 -66 37 -176 54 -245 16 -68 29 -126 27 -128 -2 -1 -20 43 -40 100 -21 57
-46 126 -57 153 -31 82 -125 383 -153 490 -14 55 -31 110 -38 123 -10 19 -8
26 12 47 13 14 27 25 31 25 4 0 14 -19 22 -42z m897 -105 c-21 -82 -58 -211
-84 -288 -46 -141 -135 -377 -136 -362 0 5 13 52 29 105 16 54 37 131 47 172
21 92 51 198 99 353 20 65 33 126 30 136 -6 19 -45 26 -45 8 0 -9 -2 -9 -8 -1
-4 7 -18 14 -32 17 -14 2 12 5 57 6 l81 1 -38 -147z m-8540 108 c11 17 22 7
14 -14 -9 -24 -34 -8 -33 22 2 25 2 25 6 2 4 -18 7 -21 13 -10z m203 19 c7 0
-17 -14 -52 -30 -62 -30 -97 -33 -89 -8 5 14 97 47 116 42 8 -2 19 -4 25 -4z
m8153 1 l-60 -6 -28 -80 c-15 -44 -42 -129 -59 -190 -17 -60 -62 -204 -101
-320 -39 -115 -87 -277 -108 -359 -20 -81 -40 -144 -44 -138 -4 6 5 52 19 102
30 106 135 513 142 550 18 89 117 406 138 441 4 5 41 8 83 7 l77 -1 -59 -6z
m-9451 -11 c3 -5 1 -10 -4 -10 -6 0 -11 5 -11 10 0 6 2 10 4 10 3 0 8 -4 11
-10z m4085 6 c0 -2 -7 -7 -16 -10 -8 -3 -12 -2 -9 4 6 10 25 14 25 6z m98 -3
c-16 -2 -40 -2 -55 0 -16 2 -3 4 27 4 30 0 43 -2 28 -4z m-4207 -13 c13 -8 25
-7 40 1 12 6 24 7 28 3 6 -10 37 -15 86 -15 17 -1 24 -3 16 -6 -10 -4 -5 -10
15 -18 l29 -12 -27 -13 c-28 -13 -38 -30 -18 -30 6 0 10 4 10 9 0 14 55 30 71
21 18 -12 10 -18 -31 -25 -19 -3 -37 -10 -40 -14 -9 -14 -39 -21 -34 -8 3 8
-8 12 -31 13 -38 1 -47 -11 -15 -19 11 -3 20 -12 20 -21 0 -12 -9 -15 -34 -13
-26 1 -32 5 -24 15 7 8 7 12 -1 12 -6 0 -11 7 -11 15 0 8 -7 15 -16 15 -10 0
-14 -7 -12 -22 2 -12 -3 -23 -12 -25 -13 -4 -13 -3 -1 6 11 7 5 10 -25 13
l-39 4 34 16 c24 11 30 18 20 23 -7 5 -14 4 -17 -3 -2 -7 -11 -12 -20 -12 -10
0 -23 -9 -30 -20 -13 -21 -42 -28 -42 -10 0 6 5 10 10 10 6 0 10 15 10 34 0
30 -3 34 -22 29 -17 -3 -19 -2 -10 5 18 12 -6 23 -40 16 -22 -4 -22 -4 2 6 18
8 30 8 46 -1 16 -8 27 -8 43 0 29 16 26 22 -6 16 -23 -4 -25 -4 -8 4 27 13 62
13 86 1z m4339 -6 c0 -2 -9 -4 -20 -4 -11 0 -20 4 -20 9 0 5 9 7 20 4 11 -3
20 -7 20 -9z m2477 -81 c-2 -21 -4 -6 -4 32 0 39 2 55 4 38 2 -18 2 -50 0 -70z
m2741 90 c-10 -2 -26 -2 -35 0 -10 3 -2 5 17 5 19 0 27 -2 18 -5z m-75 -10
c-13 -2 -33 -2 -45 0 -13 2 -3 4 22 4 25 0 35 -2 23 -4z m-5393 -7 c0 -2 -7
-7 -16 -10 -8 -3 -12 -2 -9 4 6 10 25 14 25 6z m-4290 -21 c-7 -9 -15 -13 -19
-10 -3 3 1 10 9 15 21 14 24 12 10 -5z m6020 -5 c0 -11 -4 -20 -10 -20 -5 0
-10 9 -10 20 0 11 5 20 10 20 6 0 10 -9 10 -20z m-7490 7 c0 -2 -10 -12 -21
-23 -22 -19 -22 -19 -8 4 12 19 29 30 29 19z m7525 -8 c4 -6 4 -113 -1 -237
-4 -127 -11 -214 -15 -197 -9 40 -10 26 -18 -170 -6 -156 -6 -159 -18 -107 -9
36 -13 148 -13 352 0 255 2 300 14 300 11 0 16 -15 19 -52 2 -37 4 -26 5 35 2
80 10 104 27 76z m-6100 -16 c-20 -15 -20 -15 2 -10 16 4 21 0 20 -13 -1 -10
-5 -16 -10 -13 -4 2 -14 -1 -22 -7 -8 -7 -16 -10 -16 -6 -5 25 -4 33 9 49 8 9
20 17 26 17 6 0 2 -8 -9 -17z m102 1 c-3 -3 -12 -4 -19 -1 -8 3 -5 6 6 6 11 1
17 -2 13 -5z m4618 -3 c3 -5 0 -13 -6 -17 -7 -4 -9 -3 -5 4 3 5 0 13 -6 15 -9
4 -10 6 -1 6 6 1 14 -3 18 -8z m-5403 -21 c-12 -11 -27 -20 -33 -20 -7 0 -2 9
11 20 13 11 28 20 33 20 6 0 1 -9 -11 -20z m2047 -25 c1 27 3 28 13 11 7 -12
8 -51 5 -110 -4 -50 -7 -343 -8 -651 -1 -417 -4 -531 -11 -445 -5 63 -7 325
-5 583 2 257 0 467 -5 467 -4 0 -9 -62 -9 -137 -1 -76 -3 -151 -5 -168 -11
-115 -3 -874 12 -1057 5 -62 4 -68 -14 -68 -29 0 -32 35 -33 435 0 210 -4 352
-9 340 -9 -20 -9 -20 -9 1 -1 11 4 25 11 32 9 9 9 12 -2 12 -12 0 -13 2 -1 9
10 6 15 62 22 227 16 427 20 509 26 534 6 23 7 23 13 -10 7 -35 7 -35 9 -5z
m-1812 -11 c-6 -20 -13 -32 -14 -27 -4 11 14 63 21 63 2 0 -1 -16 -7 -36z
m1898 -13 c23 -46 29 -201 29 -873 l1 -657 -45 3 -45 3 3 594 c3 775 10 983
29 967 8 -6 20 -23 28 -37z m4572 -268 c-1 -175 1 -331 5 -348 7 -26 6 -28 -5
-11 -61 94 -128 135 -387 237 -115 45 -221 92 -236 104 -78 63 27 194 156 195
25 0 58 -7 74 -15 15 -8 36 -16 45 -17 9 -1 -11 -4 -44 -8 l-60 -7 62 -1 c51
-2 67 -7 94 -29 44 -37 69 -62 68 -68 0 -3 1 -11 4 -18 4 -14 34 13 53 47 36
66 162 256 170 256 1 0 2 -143 1 -317z m-5917 277 c0 -13 -28 -25 -38 -16 -3
4 0 11 8 16 20 13 30 12 30 0z m2230 5 c0 -2 -10 -10 -22 -16 -21 -11 -22 -11
-9 4 13 16 31 23 31 12z m800 -32 c-11 -17 -11 -17 -6 0 3 10 6 24 7 30 0 9 2
9 5 0 3 -7 0 -20 -6 -30z m1732 -58 l11 -20 -23 20 c-12 11 -36 38 -53 60
l-31 40 43 -40 c23 -22 47 -49 53 -60z m-5615 43 c-3 -7 -5 -2 -5 12 0 14 2
19 5 13 2 -7 2 -19 0 -25z m3080 -80 c-4 -57 -7 -104 -7 -105 0 0 -14 -6 -31
-12 -57 -20 -64 -16 -82 49 -10 33 -17 63 -17 67 0 5 21 7 48 6 l47 -2 -44 9
c-73 16 -73 30 0 31 50 0 61 3 48 11 -15 11 -15 13 5 29 11 10 25 18 30 19 5
0 6 -46 3 -102z m4730 55 c-3 -10 -5 -2 -5 17 0 19 2 27 5 18 2 -10 2 -26 0
-35z m-8700 15 c-3 -8 -6 -5 -6 6 -1 11 2 17 5 13 3 -3 4 -12 1 -19z m1648 1
c-10 -15 -25 -10 -19 6 4 8 10 12 15 9 5 -3 7 -10 4 -15z m212 15 c-3 -3 -12
-4 -19 -1 -8 3 -5 6 6 6 11 1 17 -2 13 -5z m-691 -40 c-4 -14 -9 -24 -12 -21
-3 2 -2 17 2 31 3 15 9 25 11 22 3 -3 2 -17 -1 -32z m428 24 c-3 -4 -13 -12
-24 -18 -15 -8 -17 -6 -13 9 3 11 13 19 23 18 10 -1 16 -5 14 -9z m349 5 c-7
-2 -21 -2 -30 0 -10 3 -4 5 12 5 17 0 24 -2 18 -5z m757 -7 c0 -3 -4 -8 -10
-11 -5 -3 -10 -1 -10 4 0 6 5 11 10 11 6 0 10 -2 10 -4z m-2580 -376 c26 -96
60 -218 75 -270 14 -52 29 -108 31 -125 7 -46 -54 141 -66 205 -6 30 -31 118
-55 195 -94 303 -105 340 -104 350 1 24 75 -195 119 -355z m1575 350 c-3 -5
-12 -10 -18 -10 -7 0 -6 4 3 10 19 12 23 12 15 0z m128 -7 c-13 -2 -33 -2 -45
0 -13 2 -3 4 22 4 25 0 35 -2 23 -4z m-93 -13 c-20 -13 -33 -13 -25 0 3 6 14
10 23 10 15 0 15 -2 2 -10z m927 -7 c-9 -9 -20 -13 -24 -9 -4 4 -1 11 7 16 25
16 35 11 17 -7z m512 -59 c5 -33 7 -109 5 -169 -14 -449 -19 -544 -29 -553 -3
-3 -5 176 -5 398 0 284 3 401 11 393 5 -5 14 -37 18 -69z m-2201 57 c10 -6 5
-13 -20 -29 -24 -15 -35 -18 -40 -9 -6 9 -8 8 -8 -2 0 -8 -3 -11 -7 -7 -4 4 6
18 22 31 34 27 35 28 53 16z m722 -5 c0 -2 -7 -7 -16 -10 -8 -3 -12 -2 -9 4 6
10 25 14 25 6z m4840 -3 c0 -5 11 -21 25 -37 14 -16 25 -34 25 -39 0 -5 -10 3
-22 19 -13 16 -28 35 -35 42 -16 16 -16 22 -3 22 6 0 10 -3 10 -7z m3342 -18
c47 -23 61 -61 62 -170 1 -75 0 -80 -21 -83 -12 -2 -31 6 -42 17 -28 28 -44
27 -39 -4 6 -32 -26 -52 -154 -96 -51 -17 -111 -40 -132 -50 -22 -10 -41 -17
-43 -15 -10 10 77 329 98 357 40 56 74 71 159 66 44 -2 90 -12 112 -22z m438
-21 c0 -7 5 -14 12 -16 17 -6 0 -28 -20 -27 -14 0 -13 2 3 9 15 6 16 9 4 9
-18 1 -42 47 -33 63 8 12 34 -18 34 -38z m-9160 -24 c-7 -28 -14 -49 -17 -46
-3 3 1 28 8 55 7 28 15 49 17 46 2 -2 -1 -27 -8 -55z m590 56 c0 -2 -15 -9
-32 -15 -30 -10 -31 -9 -14 4 18 14 46 20 46 11z m2945 -6 c4 -6 -15 -10 -49
-10 -30 0 -58 5 -61 10 -4 6 15 10 49 10 30 0 58 -4 61 -10z m-2035 -10 c0 -5
-5 -10 -11 -10 -5 0 -7 5 -4 10 3 6 8 10 11 10 2 0 4 -4 4 -10z m-1682 -14
c-10 -7 -15 -16 -11 -19 3 -4 -1 -7 -10 -7 -9 0 -17 -5 -17 -11 0 -5 -5 -7
-10 -4 -6 3 -22 -3 -37 -14 -14 -12 -29 -18 -32 -15 -3 4 -1 8 4 11 6 2 35 19
65 38 55 35 80 46 48 21z m5167 0 c39 -17 48 -31 13 -21 -22 7 -22 6 2 -11 35
-26 47 -42 69 -99 35 -93 35 -92 4 -108 -24 -13 -31 -13 -55 -1 -24 12 -27 12
-22 0 6 -15 -41 -46 -71 -46 -18 0 -20 -16 -2 -23 6 -2 -12 -8 -41 -13 -29 -5
-52 -13 -51 -18 1 -13 -147 -86 -173 -86 -19 0 -19 5 -13 63 8 77 39 210 59
258 14 33 66 88 84 89 4 1 30 7 57 15 66 18 98 18 140 1z m-5252 -10 c4 -10 1
-13 -8 -9 -8 3 -12 9 -9 14 7 12 11 11 17 -5z m133 -1 c-11 -8 -16 -15 -11
-15 5 0 -1 -9 -13 -20 -12 -11 -26 -20 -32 -20 -5 0 -10 -4 -10 -10 0 -5 -6
-10 -14 -10 -20 0 -41 -27 -24 -32 7 -3 8 -7 2 -11 -5 -3 -15 3 -22 14 -11 17
-9 21 13 29 15 6 23 15 20 20 -4 6 -3 10 2 9 19 -3 30 3 61 31 18 17 36 30 40
30 4 0 -2 -7 -12 -15z m1653 -16 c-15 -9 -32 -2 -24 11 3 5 13 6 21 3 12 -4
13 -8 3 -14z m-1818 -19 c-4 -3 -11 -18 -15 -34 -4 -15 -9 -27 -11 -24 -2 2 1
23 7 47 7 28 14 38 19 30 4 -8 4 -16 0 -19z m3281 -470 l-7 -165 -8 260 c-6
182 -5 261 2 263 6 2 11 8 11 13 0 6 -4 7 -10 4 -5 -3 -10 -1 -10 4 0 6 6 11
13 11 8 0 8 3 -2 9 -11 7 -12 13 -3 23 7 9 8 19 2 28 -13 20 -13 43 0 35 6 -3
11 0 12 7 7 38 7 -351 0 -492z m419 105 c-8 -101 -9 -92 -9 116 0 124 3 238 7
255 10 46 12 -250 2 -371z m697 338 c-1 -64 5 -53 -114 -174 -35 -36 -67 -62
-70 -57 -3 5 -12 7 -20 4 -16 -6 -19 10 -4 19 6 4 17 2 24 -5 11 -8 14 -6 12
15 -1 26 -10 32 -21 15 -10 -17 -21 -11 -22 12 -2 17 0 19 7 9 7 -12 15 -8 39
18 16 17 29 34 28 36 -1 2 8 13 21 25 13 12 22 16 22 8 0 -6 18 6 40 27 22 21
40 44 39 50 0 5 -3 4 -6 -2 -2 -7 -11 -13 -18 -13 -8 0 -17 -9 -20 -20 -6 -18
-16 -24 -36 -22 -4 1 -15 -8 -24 -18 -10 -11 -23 -20 -29 -20 -11 0 134 149
146 150 4 0 6 -26 6 -57z m-2515 31 c-3 -8 -12 -13 -19 -10 -8 3 -11 0 -7 -10
3 -7 1 -14 -5 -14 -5 0 -8 -11 -7 -25 2 -14 -1 -23 -5 -20 -5 3 -7 12 -3 20 3
9 -1 15 -11 15 -28 0 -17 29 17 44 42 19 47 19 40 0z m3482 -27 c14 -24 25
-50 25 -58 0 -8 -9 5 -19 27 -10 23 -24 45 -30 48 -11 7 -16 26 -6 26 2 0 16
-20 30 -43z m475 33 c0 -5 -4 -10 -10 -10 -5 0 -10 5 -10 10 0 6 5 10 10 10 6
0 10 -4 10 -10z m-5573 -22 c-3 -8 -6 -5 -6 6 -1 11 2 17 5 13 3 -3 4 -12 1
-19z m258 -41 c24 -44 27 -87 6 -87 -8 0 -51 124 -51 145 0 15 16 -6 45 -58z
m8625 -25 c0 -33 4 -51 10 -47 6 3 10 18 10 33 0 25 3 27 48 30 43 2 87 17
135 43 11 6 21 8 24 5 3 -2 -26 -21 -63 -40 -38 -20 -94 -50 -124 -66 -30 -16
-58 -30 -61 -30 -8 0 -19 142 -11 154 12 20 32 -31 32 -82z m440 83 c0 -26 36
-170 60 -240 24 -71 99 -344 125 -460 14 -60 -51 99 -85 210 -23 72 -46 141
-52 155 -5 14 -27 87 -48 162 -21 76 -41 142 -45 148 -9 15 0 25 24 27 12 1
21 0 21 -2z m-3920 -19 c0 -2 -7 -7 -16 -10 -8 -3 -12 -2 -9 4 6 10 25 14 25
6z m433 -25 c3 9 11 -1 22 -26 14 -35 27 -46 98 -83 45 -23 137 -64 205 -91
195 -78 301 -147 348 -228 29 -48 24 -72 -7 -35 -11 14 -23 20 -30 16 -8 -4
-9 -3 -5 5 14 22 -56 71 -96 67 -15 -2 -25 1 -22 6 3 5 13 7 23 3 12 -5 13 -3
5 5 -9 9 -17 9 -32 1 -29 -15 -32 -14 -32 11 0 12 -3 19 -6 15 -4 -3 -13 0
-21 8 -8 8 -19 15 -24 15 -14 0 -11 -20 4 -21 6 0 1 -5 -12 -10 -13 -5 -26 -7
-29 -4 -3 3 0 5 6 5 17 0 15 37 -3 44 -8 3 -22 2 -32 -1 -11 -4 -14 -3 -9 5 5
8 -7 14 -36 18 -24 4 -37 9 -29 12 8 3 2 10 -18 18 -17 7 -39 10 -48 7 -9 -4
-14 -2 -10 3 3 5 -21 23 -54 39 -32 15 -59 32 -59 37 0 4 -5 8 -11 8 -15 0
-33 23 -61 78 -12 23 -25 42 -29 42 -3 0 -9 -15 -13 -32 -5 -27 -9 -30 -17
-18 -8 11 -12 12 -16 3 -2 -7 -11 -13 -19 -13 -8 0 -14 -4 -14 -10 0 -5 -5
-10 -11 -10 -6 0 -9 7 -5 15 4 10 -1 15 -14 15 -11 0 -20 5 -20 11 0 11 16 9
54 -7 13 -5 17 -4 12 4 -3 6 5 23 20 37 14 14 23 29 19 33 -4 4 -17 -5 -29
-20 -12 -16 -25 -28 -29 -28 -14 0 -6 18 21 47 27 29 27 30 43 10 13 -16 18
-17 22 -6z m-5837 -26 c-3 -9 -11 -14 -18 -13 -7 2 -13 -5 -13 -14 0 -9 -4
-20 -8 -24 -4 -4 -7 -18 -7 -31 0 -13 -11 -48 -23 -76 -13 -29 -36 -87 -52
-130 -48 -134 -37 -77 16 79 83 245 81 241 90 219 7 -18 8 -17 9 5 1 14 4 19
7 12 3 -7 2 -19 -1 -27z m1198 -5 c-9 -16 -20 -30 -25 -30 -13 0 -11 7 7 35
23 35 36 31 18 -5z m4290 -38 c-6 -63 4 -123 32 -196 4 -12 -3 -13 -38 -9 -24
2 -50 7 -58 10 -8 3 -19 7 -25 8 -5 2 -57 14 -114 29 -57 14 -120 26 -140 26
-34 0 -31 2 50 49 98 56 280 150 292 151 4 0 4 -31 1 -68z m-5728 36 c4 -7 3
-8 -4 -4 -7 4 -12 3 -12 -2 0 -16 -28 -22 -34 -7 -3 9 0 12 8 9 8 -3 17 -1 21
5 8 14 12 14 21 -1z m1794 8 c0 -3 -4 -8 -10 -11 -5 -3 -10 -1 -10 4 0 6 5 11
10 11 6 0 10 -2 10 -4z m1760 -26 c-6 -12 -14 -19 -17 -17 -2 3 1 15 7 27 6
12 14 19 17 17 2 -3 -1 -15 -7 -27z m3374 9 c-12 -13 -20 -16 -22 -9 -3 7 2
16 9 21 25 16 32 9 13 -12z m43 -1 c-3 -8 -6 -5 -6 6 -1 11 2 17 5 13 3 -3 4
-12 1 -19z m-5179 -18 c-7 -10 -14 -17 -17 -15 -4 4 18 35 25 35 2 0 -1 -9 -8
-20z m1526 11 c3 -5 -1 -11 -9 -14 -9 -4 -12 -1 -8 9 6 16 10 17 17 5z m-3383
-28 c-8 -15 -10 -15 -11 -2 0 17 10 32 18 25 2 -3 -1 -13 -7 -23z m3685 0
c-10 -10 -19 5 -10 18 6 11 8 11 12 0 2 -7 1 -15 -2 -18z m1874 23 c0 -3 -19
-16 -42 -30 -31 -19 -44 -22 -50 -13 -15 24 -8 36 22 35 17 -1 33 2 37 5 7 8
33 9 33 3z m1460 0 c0 -2 -7 -9 -15 -16 -13 -11 -14 -10 -9 4 5 14 24 23 24
12z m-6900 -16 c0 -5 -7 -10 -16 -10 -8 0 -12 5 -9 10 3 6 10 10 16 10 5 0 9
-4 9 -10z m5329 -30 c0 -10 -3 -8 -9 5 -12 27 -12 43 0 25 5 -8 9 -22 9 -30z
m698 18 c-3 -8 -6 -5 -6 6 -1 11 2 17 5 13 3 -3 4 -12 1 -19z m-4622 2 c-3 -5
-12 -10 -20 -10 -7 0 -15 -6 -18 -12 -2 -7 -8 -10 -12 -5 -5 4 0 14 11 22 22
16 48 20 39 5z m551 -18 c-18 -16 -18 -16 -6 6 6 13 14 21 18 18 3 -4 -2 -14
-12 -24z m-628 -2 c-13 -20 -28 -27 -28 -12 0 10 22 32 32 32 5 0 3 -9 -4 -20z
m477 0 c-10 -11 -22 -20 -28 -20 -5 0 1 9 14 20 31 25 37 25 14 0z m1695 10
c0 -5 -5 -10 -11 -10 -5 0 -7 5 -4 10 3 6 8 10 11 10 2 0 4 -4 4 -10z m-3414
-27 c-10 -10 -19 5 -10 18 6 11 8 11 12 0 2 -7 1 -15 -2 -18z m101 5 c-3 -8
-6 -5 -6 6 -1 11 2 17 5 13 3 -3 4 -12 1 -19z m1087 7 c-4 -8 -11 -15 -16 -15
-6 0 -5 6 2 15 7 8 14 15 16 15 2 0 1 -7 -2 -15z m2116 11 c0 -3 -4 -8 -10
-11 -5 -3 -10 -1 -10 4 0 6 5 11 10 11 6 0 10 -2 10 -4z m2421 -29 c-8 -8 -11
-7 -11 4 0 20 13 34 18 19 3 -7 -1 -17 -7 -23z m166 1 c-3 -8 -6 -5 -6 6 -1
11 2 17 5 13 3 -3 4 -12 1 -19z m-1837 8 c0 -3 -4 -8 -10 -11 -5 -3 -10 -1
-10 4 0 6 5 11 10 11 6 0 10 -2 10 -4z m1755 -19 c-7 -17 -42 -29 -50 -17 -3
4 6 11 20 14 14 4 25 12 25 18 0 6 2 9 5 6 3 -3 3 -12 0 -21z m1038 12 c-8 -8
-16 -8 -30 0 -16 9 -14 10 12 11 21 0 26 -3 18 -11z m72 -28 c-5 -2 -13 -9
-17 -15 -5 -7 -13 -5 -25 6 -16 17 -16 18 1 31 16 12 21 12 35 -2 10 -9 13
-18 6 -20z m54 20 c8 -14 7 -22 -6 -32 -14 -12 -15 -11 -9 9 6 16 3 22 -8 22
-9 0 -16 5 -16 10 0 17 29 11 39 -9z m-7017 -13 c-7 -7 -12 -8 -12 -2 0 6 3
14 7 17 3 4 9 5 12 2 2 -3 -1 -11 -7 -17z m1184 -5 c-10 -10 -19 5 -10 18 6
11 8 11 12 0 2 -7 1 -15 -2 -18z m1074 11 c0 -8 -4 -13 -9 -9 -5 3 -12 -3 -14
-12 -3 -11 -5 -8 -6 10 -1 18 4 27 14 27 8 0 15 -7 15 -16z m-978 -16 c-7 -7
-12 -8 -12 -2 0 6 3 14 7 17 3 4 9 5 12 2 2 -3 -1 -11 -7 -17z m1105 7 c8 -8
19 -12 24 -9 6 3 17 3 26 0 14 -6 13 -9 -8 -24 -24 -16 -37 -16 -31 2 2 5 -3
13 -10 17 -18 12 -30 11 -23 -1 3 -6 -1 -7 -10 -4 -12 5 -13 9 -4 20 14 18 17
17 36 -1z m111 -9 c-1 -14 -6 -22 -10 -20 -4 3 -13 -4 -20 -16 -15 -24 -24
-25 -31 -6 -4 10 -1 13 8 9 9 -3 21 7 32 26 22 37 23 38 21 7z m4572 6 c0 -10
-7 -19 -15 -19 -18 0 -19 9 -3 25 16 16 18 15 18 -6z m-5110 -7 c-10 -12 -10
-15 0 -15 8 0 11 -3 7 -6 -3 -3 -10 -3 -16 0 -12 8 -3 36 11 36 6 0 5 -6 -2
-15z m3780 5 c0 -5 -4 -10 -10 -10 -5 0 -10 5 -10 10 0 6 5 10 10 10 6 0 10
-4 10 -10z m1110 1 c0 -6 -4 -13 -10 -16 -5 -3 -10 1 -10 9 0 9 5 16 10 16 6
0 10 -4 10 -9z m-7711 -96 c17 -49 31 -94 31 -100 -1 -12 -54 128 -64 170 -13
52 1 23 33 -70z m6898 89 c-3 -3 -12 -4 -19 -1 -8 3 -5 6 6 6 11 1 17 -2 13
-5z m36 -19 c4 -8 2 -17 -3 -20 -6 -4 -10 -4 -10 -1 0 2 -3 11 -6 20 -3 9 -2
16 4 16 5 0 12 -7 15 -15z m-142 -18 c-10 -9 -11 -8 -5 6 3 10 9 15 12 12 3
-3 0 -11 -7 -18z m864 -123 c4 -74 5 -137 3 -140 -3 -2 -8 42 -12 98 -4 57
-10 120 -13 141 -3 22 -1 37 5 37 5 0 13 -56 17 -136z m245 121 c0 -8 -4 -15
-10 -15 -5 0 -10 7 -10 15 0 8 5 15 10 15 6 0 10 -7 10 -15z m-4530 -7 c0 -7
-13 -22 -28 -33 -27 -19 -27 -19 -12 0 38 50 40 51 40 33z m3590 -3 c-7 -9
-15 -13 -17 -11 -7 7 7 26 19 26 6 0 6 -6 -2 -15z m-2050 -5 c0 -5 -2 -10 -4
-10 -3 0 -8 5 -11 10 -3 6 -1 10 4 10 6 0 11 -4 11 -10z m150 1 c0 -5 -10 -18
-23 -28 -13 -10 -29 -27 -36 -38 -11 -17 -12 -17 -7 -1 7 22 48 75 59 75 4 1
7 -3 7 -8z m1930 -11 c-8 -5 -19 -10 -25 -10 -5 0 -3 5 5 10 8 5 20 10 25 10
6 0 3 -5 -5 -10z m-3533 -22 c-3 -8 -6 -5 -6 6 -1 11 2 17 5 13 3 -3 4 -12 1
-19z m3573 18 c0 -2 -7 -7 -16 -10 -8 -3 -12 -2 -9 4 6 10 25 14 25 6z m-2089
-33 c-12 -20 -14 -14 -5 12 4 9 9 14 11 11 3 -2 0 -13 -6 -23z m2796 21 c-3
-3 -12 -4 -19 -1 -8 3 -5 6 6 6 11 1 17 -2 13 -5z m1903 -4 c-8 -5 -19 -10
-25 -10 -5 0 -3 5 5 10 8 5 20 10 25 10 6 0 3 -5 -5 -10z m-4740 -4 c0 -2 -7
-7 -16 -10 -8 -3 -12 -2 -9 4 6 10 25 14 25 6z m2205 -14 c-3 -3 -11 0 -18 7
-9 10 -8 11 6 5 10 -3 15 -9 12 -12z m-5382 1 c-7 -2 -19 -2 -25 0 -7 3 -2 5
12 5 14 0 19 -2 13 -5z m2677 -2 c0 -6 -4 -13 -10 -16 -5 -3 -10 1 -10 9 0 9
5 16 10 16 6 0 10 -4 10 -9z m5190 -5 c-16 -14 -126 -59 -175 -70 -53 -13 -14
11 62 37 40 14 80 30 90 36 26 15 40 13 23 -3z m-7915 -6 c-3 -5 -11 -10 -16
-10 -6 0 -7 5 -4 10 3 6 11 10 16 10 6 0 7 -4 4 -10z m4695 -11 c13 -7 13 -8
-2 -9 -9 0 -18 -3 -20 -7 -1 -5 -25 -18 -52 -31 -28 -13 -45 -18 -39 -10 6 7
12 18 12 23 0 6 13 11 28 13 56 6 58 15 8 28 l-50 13 50 -5 c28 -3 57 -10 65
-15z m247 -11 c-3 -7 -5 -2 -5 12 0 14 2 19 5 13 2 -7 2 -19 0 -25z m-692 6
c-32 -24 -241 -128 -225 -111 8 8 51 34 95 58 44 23 89 48 100 56 29 19 56 17
30 -3z m555 -1 c0 -9 -111 -81 -215 -141 -76 -43 -352 -180 -322 -159 96 65
226 145 287 177 41 21 111 59 155 84 81 46 95 52 95 39z m675 -3 c-3 -5 -11
-10 -16 -10 -6 0 -7 5 -4 10 3 6 11 10 16 10 6 0 7 -4 4 -10z m2998 -11 c-14
-14 -323 -170 -423 -214 -155 -68 -170 -74 -170 -71 0 2 51 33 113 69 149 86
363 191 376 182 6 -3 11 -1 11 4 0 6 6 11 13 11 7 0 28 8 47 19 36 19 52 19
33 0z m-8558 1 c-3 -5 -11 -10 -17 -10 -6 0 -17 -8 -25 -17 -8 -10 -12 -12 -8
-5 3 6 3 12 -2 12 -11 -1 -49 -30 -39 -30 5 0 3 -7 -4 -15 -7 -9 -20 -13 -27
-10 -25 9 -197 -119 -189 -141 2 -7 -5 -20 -16 -31 -11 -10 -28 -34 -38 -54
-10 -19 -26 -41 -35 -49 -14 -12 -15 -10 -6 14 6 14 17 39 26 56 18 35 19 43
3 34 -41 -23 119 125 177 164 83 54 217 110 200 82z m4973 -44 c23 -41 46 -63
94 -93 101 -64 139 -80 249 -108 186 -47 275 -105 299 -196 33 -123 -80 -262
-215 -264 -93 0 -198 75 -286 204 -33 49 -61 81 -71 81 -10 0 -18 -1 -18 -3 0
-2 -16 -48 -35 -103 -22 -61 -33 -109 -30 -125 4 -17 0 -31 -13 -43 -19 -16
-21 -16 -40 9 -11 14 -33 57 -48 96 -29 75 -44 90 -19 19 16 -45 11 -68 -9
-37 -6 10 -39 61 -73 113 -34 52 -65 104 -68 114 -4 11 -13 20 -21 20 -17 0
-17 1 2 -45 14 -34 14 -39 -3 -57 -26 -30 -130 -102 -188 -131 -62 -31 -160
-51 -185 -37 -40 21 -150 166 -150 198 0 17 190 121 430 236 52 25 156 81 230
126 74 44 135 80 136 80 1 0 16 -24 32 -54z m-2166 -178 c2 -123 1 -245 -2
-273 -6 -48 -6 -49 -15 -20 -6 17 -10 116 -9 220 1 228 4 295 15 295 5 0 10
-100 11 -222z m2226 202 c8 0 27 -9 43 -21 16 -11 29 -18 29 -15 0 3 8 -2 19
-11 10 -10 28 -25 39 -33 14 -11 18 -20 12 -29 -6 -11 -19 -7 -62 19 -58 35
-118 88 -118 104 0 6 5 5 12 -2 7 -7 18 -12 26 -12z m588 5 c-11 -8 -24 -15
-30 -15 -5 0 -1 7 10 15 10 8 24 14 29 14 6 0 1 -6 -9 -14z m-4912 -367 c-2
-194 -6 -364 -8 -378 -2 -14 -5 -41 -6 -60 -1 -23 -4 -28 -7 -15 -3 11 -8 25
-12 30 -4 6 -6 30 -4 55 4 46 3 390 0 470 -1 25 -6 51 -10 57 -4 7 -3 21 3 32
5 11 10 40 10 65 0 45 16 96 31 96 4 0 6 -159 3 -352z m5666 338 c0 -2 -8 -10
-17 -17 -16 -13 -17 -12 -4 4 13 16 21 21 21 13z m2050 -60 c0 -2 -8 -10 -17
-17 -16 -13 -17 -12 -4 4 13 16 21 21 21 13z m1181 -37 c-5 -13 -10 -19 -10
-12 -1 15 10 45 15 40 3 -2 0 -15 -5 -28z m-4081 17 c0 -2 -7 -7 -16 -10 -8
-3 -12 -2 -9 4 6 10 25 14 25 6z m-5120 -16 c0 -5 -7 -7 -15 -4 -8 4 -15 8
-15 10 0 2 7 4 15 4 8 0 15 -4 15 -10z m5320 6 c0 -2 -8 -10 -17 -17 -16 -13
-17 -12 -4 4 13 16 21 21 21 13z m-5361 -21 c2 -3 -31 -5 -75 -5 -43 0 -73 4
-66 8 12 8 132 5 141 -3z m5161 1 c0 -2 -7 -7 -16 -10 -8 -3 -12 -2 -9 4 6 10
25 14 25 6z m-260 -18 c0 -10 3 -9 9 1 5 8 11 9 15 3 3 -6 3 -13 -2 -16 -13
-8 -53 5 -46 15 8 13 24 11 24 -3z m342 -5 c-6 -2 -9 -10 -6 -15 4 -7 2 -8 -5
-4 -13 9 -5 26 12 25 9 0 8 -2 -1 -6z m-261 -18 c24 -10 28 -14 14 -14 -32 -1
-65 11 -59 20 7 11 6 12 45 -6z m726 -17 c-3 -7 -5 -2 -5 12 0 14 2 19 5 13 2
-7 2 -19 0 -25z m-5719 -10 l32 -10 -1 -181 c-1 -216 -7 -245 -54 -282 -66
-50 -123 -68 -215 -69 -75 -1 -89 2 -118 23 -18 14 -40 36 -49 50 -12 19 -3
14 32 -17 67 -59 74 -52 10 12 -61 60 -85 122 -85 215 1 101 54 177 160 225
116 53 196 62 288 34z m5125 13 c5 0 5 -5 2 -11 -3 -5 -1 -10 6 -10 7 0 10 -2
8 -5 -7 -6 -79 17 -79 25 0 5 34 6 63 1z m-3989 -393 c-3 -211 -8 -386 -11
-390 -16 -28 -21 15 -20 181 0 107 -4 196 -9 203 -5 7 -11 65 -12 128 -2 73 0
110 6 101 5 -7 10 -52 11 -100 4 -171 18 -161 20 13 1 156 8 246 18 246 2 0 1
-172 -3 -382z m5516 267 c-6 -33 -19 -68 -27 -77 -8 -9 -27 -43 -43 -75 -15
-32 -49 -83 -76 -113 -79 -89 -179 -187 -161 -157 10 15 13 27 8 27 -5 0 -12
-7 -15 -16 -3 -9 -12 -14 -20 -11 -8 3 -31 -10 -53 -29 -21 -20 -30 -33 -20
-30 21 7 22 2 1 -19 -13 -12 -19 -13 -24 -5 -6 9 -13 7 -27 -6 -11 -11 -39
-34 -64 -52 -53 -41 -34 -23 129 121 61 54 158 148 214 208 114 122 162 203
175 298 6 42 8 49 11 26 2 -16 -2 -56 -8 -90z m-1450 95 c0 -5 10 -10 22 -10
17 0 19 -3 11 -11 -9 -9 -20 -9 -43 1 -23 9 -28 15 -18 21 18 12 28 11 28 -1z
m454 -195 c1 -84 -3 -108 -22 -149 -12 -27 -24 -47 -26 -45 -2 2 1 38 5 79 5
41 7 100 4 130 -5 67 -7 140 -5 160 1 8 11 -5 22 -30 16 -35 21 -67 22 -145z
m-6315 138 c-19 -21 -46 -55 -60 -75 -27 -43 -36 -47 -34 -16 1 11 15 32 31
45 16 12 23 23 17 23 -10 0 -10 6 -1 26 8 17 18 24 30 21 10 -3 21 -1 24 4 3
5 10 9 17 9 6 0 -5 -17 -24 -37z m6378 15 c-3 -8 -6 -5 -6 6 -1 11 2 17 5 13
3 -3 4 -12 1 -19z m-4850 -20 c-3 -7 -5 -2 -5 12 0 14 2 19 5 13 2 -7 2 -19 0
-25z m6733 28 c0 -2 -7 -7 -16 -10 -8 -3 -12 -2 -9 4 6 10 25 14 25 6z m-9413
-48 c-3 -8 -6 -5 -6 6 -1 11 2 17 5 13 3 -3 4 -12 1 -19z m1033 -53 c-10 -93
-3 -352 10 -375 12 -23 13 -48 1 -34 -4 5 -16 38 -27 74 -24 84 -24 271 1 355
9 31 17 56 19 54 1 -2 0 -35 -4 -74z m7776 18 c1 -21 -1 -30 -3 -20 -3 9 -9
17 -14 17 -6 0 -5 8 1 20 15 27 16 26 16 -17z m-8789 -35 c-3 -8 -6 -5 -6 6
-1 11 2 17 5 13 3 -3 4 -12 1 -19z m50 -10 c-3 -7 -5 -2 -5 12 0 14 2 19 5 13
2 -7 2 -19 0 -25z m8694 3 c-13 -24 -91 -65 -101 -54 -4 5 1 16 12 26 10 9 18
13 18 7 0 -18 20 -10 48 19 30 33 39 34 23 2z m-3161 -5 c0 -3 -4 -8 -10 -11
-5 -3 -10 -1 -10 4 0 6 5 11 10 11 6 0 10 -2 10 -4z m3207 -18 c-3 -8 -6 -5
-6 6 -1 11 2 17 5 13 3 -3 4 -12 1 -19z m-4857 -197 c20 -160 57 -320 72 -306
10 10 48 -14 48 -30 0 -8 3 -14 8 -13 4 1 22 -12 39 -30 28 -29 30 -32 10 -26
-68 22 -155 114 -183 194 -7 19 -15 109 -19 200 -4 91 -8 179 -10 195 -4 24
-3 26 5 10 5 -11 18 -98 30 -194z m4914 157 c5 -32 4 -48 -3 -48 -7 0 -11 22
-11 52 0 62 5 60 14 -4z m-7553 -3 c-11 -24 -20 -33 -23 -24 -5 13 30 74 38
66 2 -2 -4 -21 -15 -42z m5851 -102 c1 -37 -4 -58 -24 -89 -27 -43 -85 -92
-128 -110 -37 -16 -200 -15 -235 1 -45 20 -69 29 -80 30 -15 1 -63 33 -133 89
-35 28 -67 50 -70 49 -3 -1 -10 -11 -14 -23 -5 -15 -4 -19 4 -14 26 17 -3 -82
-47 -159 -57 -98 -53 -93 -65 -81 -7 7 6 43 37 105 26 51 48 103 48 114 2 25
48 175 55 175 3 0 25 -30 49 -66 73 -109 207 -194 303 -194 63 0 139 33 181
77 32 35 76 135 73 167 -2 11 -6 32 -10 46 -5 16 3 8 23 -22 24 -34 32 -59 33
-95z m-7058 58 c-7 -7 -12 3 -18 39 l-6 35 14 -35 c7 -19 12 -37 10 -39z
m4613 22 c-3 -10 -5 -2 -5 17 0 19 2 27 5 18 2 -10 2 -26 0 -35z m4023 42 c0
-8 -44 -45 -54 -45 -6 0 3 11 19 25 32 26 35 28 35 20z m1650 -95 c39 -120 72
-249 67 -263 -2 -7 -14 27 -26 73 -12 47 -35 127 -52 178 -27 87 -35 121 -25
111 2 -2 18 -47 36 -99z m-2841 -10 c0 -36 -4 -94 -9 -130 -16 -105 -24 -358
-13 -372 8 -9 5 -19 -8 -32 -18 -18 -18 -14 -13 135 3 85 10 187 15 227 5 40
9 119 10 175 0 66 3 95 9 82 5 -11 9 -49 9 -85z m-2306 84 c-16 -7 -5 -34 14
-34 19 0 11 -24 -9 -28 -20 -4 -43 54 -25 62 7 2 17 4 22 4 6 0 5 -2 -2 -4z
m3334 -16 c-3 -8 -6 -5 -6 6 -1 11 2 17 5 13 3 -3 4 -12 1 -19z m57 7 c3 -8 1
-15 -4 -15 -6 0 -10 7 -10 15 0 8 2 15 4 15 2 0 6 -7 10 -15z m180 -22 c-3
-56 -22 -119 -41 -134 -15 -12 -16 -12 -10 6 6 19 6 19 -6 2 -23 -36 -117
-132 -117 -120 0 6 4 13 8 15 5 2 30 32 56 68 27 36 53 65 60 65 12 0 26 15
26 28 0 5 -6 5 -12 1 -10 -6 -10 -4 0 7 6 7 12 29 12 49 0 35 6 50 20 50 3 0
5 -17 4 -37z m-4922 -85 c2 -43 0 -78 -4 -78 -5 0 -7 44 -7 98 2 107 6 99 11
-20z m4671 88 c4 -10 1 -13 -9 -9 -15 6 -19 23 -5 23 5 0 11 -7 14 -14z m1355
-11 c-3 -3 -9 2 -12 12 -6 14 -5 15 5 6 7 -7 10 -15 7 -18z m-1233 -5 c-3 -5
-11 -10 -16 -10 -6 0 -7 5 -4 10 3 6 11 10 16 10 6 0 7 -4 4 -10z m1205 -10
c0 -39 -183 -148 -285 -170 -27 -5 -60 -12 -72 -15 -41 -9 -24 12 20 24 62 19
143 61 237 125 47 31 88 56 92 56 5 0 8 -9 8 -20z m-9807 -90 c4 -19 -2 -8
-13 25 -11 33 -19 65 -19 70 1 16 26 -57 32 -95z m4639 38 c2 -21 0 -38 -4
-38 -4 0 -7 24 -7 53 1 54 5 49 11 -15z m1418 48 c0 -14 -58 -74 -112 -116
-39 -30 -104 -50 -162 -49 -45 0 -48 2 -26 11 89 37 173 83 225 122 66 49 75
53 75 32z m-6033 -18 c-3 -8 -6 -5 -6 6 -1 11 2 17 5 13 3 -3 4 -12 1 -19z
m9879 -35 c21 -32 56 -77 78 -102 58 -68 65 -89 37 -112 -28 -23 -41 -24 -41
-4 0 8 -29 71 -65 140 -36 68 -65 127 -65 130 0 18 22 -2 56 -52z m-8686 25
c0 -19 -2 -20 -10 -8 -13 19 -13 30 0 30 6 0 10 -10 10 -22z m101 -175 c23
-25 23 -26 2 -12 -50 34 -67 69 -70 143 l-3 71 24 -88 c14 -53 33 -98 47 -114z
m3869 162 c7 -8 13 -27 13 -41 0 -18 6 -28 19 -32 13 -3 17 -10 13 -23 -4 -11
-2 -19 5 -19 6 0 10 -8 8 -17 -2 -10 2 -17 9 -16 7 2 10 -3 7 -11 -3 -9 5 -21
20 -31 23 -15 26 -45 5 -45 -16 0 -87 118 -105 173 -9 29 -19 58 -22 65 -6 17
13 15 28 -3z m1019 -73 c30 -40 51 -75 48 -79 -6 -6 -53 58 -94 128 -33 56
-20 43 46 -49z m4638 56 c-3 -8 -6 -5 -6 6 -1 11 2 17 5 13 3 -3 4 -12 1 -19z
m-10797 -27 c5 -19 5 -31 -1 -31 -5 0 -9 9 -9 19 0 11 -3 28 -7 38 -3 10 -3
15 1 12 4 -4 11 -20 16 -38z m8397 17 c-3 -8 -6 -5 -6 6 -1 11 2 17 5 13 3 -3
4 -12 1 -19z m-1056 -79 l-8 -74 -2 62 c-1 56 6 99 15 90 2 -2 0 -37 -5 -78z
m-4574 -151 c-1 -40 -3 -8 -3 72 0 80 2 112 3 73 2 -40 2 -106 0 -145z m2036
197 c-3 -9 -8 -14 -10 -11 -3 3 -2 9 2 15 9 16 15 13 8 -4z m-3964 -55 c1 -20
-1 -22 -9 -10 -5 8 -9 29 -9 45 0 26 2 27 9 10 5 -11 9 -31 9 -45z m4280 -77
c12 -15 67 -74 122 -131 108 -110 183 -156 298 -182 74 -17 257 -7 338 18 87
28 222 95 258 128 29 27 30 27 33 7 8 -54 -116 -168 -211 -194 -120 -32 -355
-43 -451 -20 -196 47 -349 197 -421 411 -14 41 -25 82 -24 90 0 8 8 -11 18
-42 10 -31 28 -69 40 -85z m1184 122 c-3 -9 -8 -14 -10 -11 -3 3 -2 9 2 15 9
16 15 13 8 -4z m-1701 -62 c2 -24 0 -43 -4 -43 -5 0 -7 26 -7 58 1 61 6 55 11
-15z m-4537 -120 c55 -164 116 -327 141 -377 18 -37 18 -36 -6 -36 -11 0 -20
-2 -20 -5 0 -13 35 -58 50 -63 13 -6 14 -14 7 -49 -4 -24 -12 -43 -16 -43 -4
0 -17 30 -28 68 -11 37 -46 148 -77 247 -51 160 -116 394 -116 419 0 25 17
-16 65 -161z m6039 117 c-6 -5 -24 21 -24 34 0 6 6 1 14 -10 8 -10 12 -21 10
-24z m-2300 -155 c14 -30 21 -55 17 -55 -21 0 -53 96 -56 169 l-4 76 9 -67 c4
-37 20 -92 34 -123z m586 145 l0 -41 -23 17 -23 18 21 22 c11 12 21 22 23 23
1 1 2 -17 2 -39z m6377 8 c-3 -8 -6 -5 -6 6 -1 11 2 17 5 13 3 -3 4 -12 1 -19z
m-9829 -215 c28 -51 47 -93 44 -93 -27 1 -157 227 -168 290 -6 38 4 21 124
-197z m6347 159 c-22 -92 -45 -130 -128 -209 -84 -79 -157 -119 -282 -153
-106 -29 -280 -37 -367 -16 -34 8 -78 17 -97 20 -47 8 -131 74 -170 133 -39
58 -25 68 29 19 22 -19 61 -46 88 -60 94 -48 327 -71 453 -45 30 6 65 12 79
13 95 9 273 161 373 319 17 26 31 46 33 44 2 -1 -3 -31 -11 -65z m-1149 21
c-7 -7 -26 7 -26 19 0 6 6 6 15 -2 9 -7 13 -15 11 -17z m133 -7 c-13 -28 -29
-35 -29 -12 0 15 30 50 37 43 2 -3 -2 -16 -8 -31z m-4635 -21 c-10 -8 -53 -32
-95 -54 -68 -34 -80 -38 -122 -31 -58 9 -51 6 -87 25 -48 25 -27 35 60 28 88
-7 181 9 227 37 33 20 45 17 17 -5z m3072 -2 c-10 -10 -19 5 -10 18 6 11 8 11
12 0 2 -7 1 -15 -2 -18z m1497 7 c-5 -19 -23 -29 -23 -12 0 7 20 32 26 32 1 0
0 -9 -3 -20z m-1612 -142 c6 -11 8 -22 6 -25 -15 -14 -37 61 -36 119 l2 63 8
-68 c5 -38 14 -78 20 -89z m67 -5 c33 -68 44 -103 33 -103 -32 0 -91 144 -90
218 l0 47 14 -51 c8 -28 27 -78 43 -111z m246 122 c19 -63 29 -85 39 -85 7 0
7 4 -1 12 -7 7 -12 17 -12 22 0 6 7 0 17 -13 14 -21 14 -25 2 -35 -17 -13 -13
-49 4 -43 7 2 11 13 9 23 -3 22 24 -6 100 -105 l48 -61 -130 0 c-72 0 -130 -4
-130 -9 0 -5 -9 -7 -19 -4 -22 6 -84 63 -76 71 2 3 16 -7 30 -22 14 -15 25
-23 25 -18 0 5 -11 19 -25 32 -23 22 -23 23 -7 45 11 15 19 19 24 12 4 -6 10
-8 15 -4 4 5 1 12 -7 18 -11 6 -21 3 -36 -14 -21 -25 -54 -31 -66 -13 -8 11
41 48 54 40 4 -3 5 1 2 9 -3 8 2 17 11 21 9 3 15 14 13 23 -3 22 26 66 37 55
5 -4 5 -1 1 5 -4 7 -3 20 2 29 8 14 10 14 25 -1 10 -9 17 -14 17 -12 0 3 3 13
7 23 5 13 3 16 -10 11 -17 -6 -31 5 -20 17 16 16 48 0 57 -29z m1256 15 c8
-16 8 -18 -4 -14 -17 6 -30 34 -16 34 5 0 14 -9 20 -20z m1178 -197 c-3 -130
-10 -161 -29 -133 -10 15 -6 176 8 295 l7 60 8 -45 c5 -25 7 -104 6 -177z
m1162 171 c-61 -61 -134 -117 -204 -154 -69 -37 -86 -33 -24 6 41 26 60 40
151 110 65 50 112 83 117 84 2 0 -16 -21 -40 -46z m-8125 -35 c-13 -57 -64
-220 -82 -259 -9 -21 -9 -20 -17 -72 -9 -53 -13 -56 -32 -30 -23 30 -15 92 12
92 8 0 11 6 8 15 -4 8 -2 15 2 15 5 0 10 11 10 24 1 13 18 62 39 108 20 45 44
105 52 131 21 68 26 53 8 -24z m5805 16 c-7 -9 -15 -13 -18 -10 -3 2 1 11 8
20 7 9 15 13 18 10 3 -2 -1 -11 -8 -20z m4577 -17 c-3 -8 -6 -5 -6 6 -1 11 2
17 5 13 3 -3 4 -12 1 -19z m-8745 -50 c10 -34 16 -64 14 -66 -9 -9 -46 69 -46
97 0 50 14 36 32 -31z m2728 31 c0 -6 7 -3 16 5 25 25 27 18 4 -11 -12 -16
-25 -27 -28 -26 -4 1 -13 -3 -19 -9 -19 -15 -16 2 4 24 9 10 13 21 9 25 -4 4
-11 1 -16 -7 -7 -11 -9 -10 -7 7 1 17 5 20 19 12 10 -5 18 -14 18 -20z m530
11 c0 -5 6 -10 14 -10 8 0 18 -9 21 -20 3 -11 12 -20 20 -20 8 0 16 -9 20 -19
4 -12 12 -18 21 -14 10 4 12 0 8 -11 -6 -16 5 -21 36 -16 8 1 12 -1 8 -6 -4
-4 -3 -13 3 -21 35 -41 -75 33 -116 79 -51 56 -58 68 -46 68 6 0 11 -4 11 -10z
m1070 -50 c0 -9 14 -14 32 -11 4 0 5 -12 2 -28 -4 -16 -1 -32 5 -35 7 -5 11 2
11 19 0 23 2 24 20 15 20 -11 26 -45 12 -68 -15 -23 -118 33 -142 78 -7 13 -5
26 7 48 16 28 17 28 35 10 10 -10 18 -22 18 -28z m-1664 25 c-10 -27 4 -44 32
-39 27 5 27 5 7 -14 -20 -20 -20 -20 -37 2 -19 24 -31 59 -17 50 5 -3 9 0 9 5
0 6 3 11 6 11 3 0 4 -7 0 -15z m1480 -12 c-7 -23 -83 -73 -110 -73 -14 0 -7 8
25 28 24 16 53 39 63 51 22 24 31 22 22 -6z m4218 -41 c13 -33 21 -63 18 -67
-6 -5 -52 108 -52 128 0 19 10 1 34 -61z m-8941 51 c-7 -2 -19 -2 -25 0 -7 3
-2 5 12 5 14 0 19 -2 13 -5z m1679 -15 c-7 -7 -12 -8 -12 -2 0 14 12 26 19 19
2 -3 -1 -11 -7 -17z m4778 12 c0 -5 -5 -10 -11 -10 -5 0 -7 5 -4 10 3 6 8 10
11 10 2 0 4 -4 4 -10z m-6900 -20 c0 -5 7 -10 15 -10 9 0 18 -7 21 -15 4 -8
13 -15 21 -15 8 0 17 -8 20 -19 3 -11 11 -17 21 -14 10 2 27 -5 39 -16 12 -12
29 -21 38 -21 8 0 15 -4 15 -9 0 -5 8 -7 18 -5 16 5 129 -20 139 -30 11 -11
-73 -28 -110 -22 -57 10 -162 64 -213 112 -41 37 -57 74 -34 74 6 0 10 -4 10
-10z m6120 7 c0 -2 -10 -12 -22 -23 l-23 -19 19 23 c18 21 26 27 26 19z m1360
-1 c0 -2 -8 -10 -17 -17 -16 -13 -17 -12 -4 4 13 16 21 21 21 13z m1480 -25
c0 -5 -46 -27 -102 -49 -152 -60 -154 -60 -28 5 108 56 130 63 130 44z m-3515
-1 c3 -5 1 -10 -4 -10 -6 0 -11 5 -11 10 0 6 2 10 4 10 3 0 8 -4 11 -10z
m2735 -5 c-14 -16 -40 -20 -40 -6 0 10 17 19 39 20 11 1 11 -2 1 -14z m-4420
-5 c0 -5 -5 -10 -11 -10 -5 0 -7 5 -4 10 3 6 8 10 11 10 2 0 4 -4 4 -10z
m3664 -5 c-10 -8 -23 -14 -29 -14 -5 0 -1 6 9 14 11 8 24 15 30 15 5 0 1 -7
-10 -15z m-1949 -16 c-5 -14 -1 -25 12 -34 15 -11 21 -11 36 2 9 9 17 11 17 5
0 -6 -4 -14 -10 -17 -5 -3 -10 -13 -10 -22 0 -14 2 -14 19 1 18 16 22 16 78
-13 l58 -30 -55 -1 c-49 0 -166 23 -178 35 -3 2 0 17 6 32 5 15 13 36 16 46 3
9 8 17 11 17 4 0 3 -9 0 -21z m-4775 5 c0 -25 -139 -107 -173 -102 -17 2 -1
15 68 55 88 52 105 59 105 47z m8750 -14 c6 -11 15 -18 21 -15 13 9 50 -5 44
-15 -3 -5 -22 -9 -41 -8 -33 1 -54 19 -54 47 0 18 19 12 30 -9z m250 -24 c-6
-20 -16 -36 -22 -36 -5 0 -8 3 -6 8 3 4 10 22 17 40 17 44 26 33 11 -12z
m-8167 19 c-3 -9 -8 -14 -10 -11 -3 3 -2 9 2 15 9 16 15 13 8 -4z m-457 -52
c-1 -1 -62 -7 -135 -14 -110 -9 -135 -9 -142 2 -4 7 -6 15 -4 17 6 7 59 12
150 16 54 2 91 8 93 15 2 6 12 1 22 -11 10 -13 17 -24 16 -25z m695 20 c-12
-20 -14 -14 -5 12 4 9 9 14 11 11 3 -2 0 -13 -6 -23z m5579 23 c0 -2 -7 -7
-16 -10 -8 -3 -12 -2 -9 4 6 10 25 14 25 6z m-3646 -104 l29 -22 -70 0 -70 0
-2 63 -2 62 43 -41 c24 -22 56 -50 72 -62z m2826 94 c0 -2 -7 -7 -16 -10 -8
-3 -12 -2 -9 4 6 10 25 14 25 6z m-5000 -16 c-13 -8 -12 -10 3 -10 9 0 17 -5
17 -10 0 -9 -32 -9 -80 -1 -10 2 45 29 60 30 13 1 13 0 0 -9z m8100 0 c0 -5
-8 -10 -17 -10 -15 0 -16 2 -3 10 19 12 20 12 20 0z m-6705 -35 c17 -14 26
-25 20 -25 -5 0 -23 11 -40 25 -16 13 -25 24 -20 24 6 0 24 -11 40 -24z m811
0 c-14 -14 -16 -14 -16 -2 0 9 6 17 13 20 19 7 21 -1 3 -18z m779 15 c13 -6
15 -9 5 -9 -8 0 -22 4 -30 9 -18 12 -2 12 25 0z m2321 1 c-7 -11 69 -19 109
-12 17 4 50 4 75 1 l45 -5 -49 -8 c-27 -4 -120 -7 -208 -7 -95 0 -167 -4 -180
-11 -33 -18 -31 -3 3 22 19 13 34 18 36 12 5 -13 142 -8 157 7 12 12 19 13 12
1z m2589 -52 c11 -34 21 -57 23 -50 2 6 -3 30 -12 51 -12 30 -13 40 -3 39 31
-2 170 -27 155 -28 -9 0 -25 -14 -35 -31 -17 -30 -33 -39 -33 -20 0 6 -7 10
-15 10 -19 0 -19 -20 1 -48 15 -22 14 -22 -25 -22 -23 0 -41 1 -41 3 0 1 -11
35 -25 75 -28 84 -28 82 -17 82 5 0 17 -28 27 -61z m-8275 41 c0 -5 -2 -10 -4
-10 -3 0 -8 5 -11 10 -3 6 -1 10 4 10 6 0 11 -4 11 -10z m7490 -27 c-74 -35
-76 -35 -200 -34 -110 1 -288 26 -276 38 2 3 55 -3 118 -12 126 -19 174 -16
318 20 125 31 128 30 40 -12z m-9296 -12 c-4 -17 -9 -30 -11 -27 -3 2 -2 19 2
36 9 41 17 33 9 -9z m5223 33 c-3 -3 -12 -4 -19 -1 -8 3 -5 6 6 6 11 1 17 -2
13 -5z m2639 -3 c-3 -4 -36 -17 -73 -29 -50 -15 -107 -22 -218 -26 -82 -3
-233 -12 -335 -20 -214 -18 -213 -18 -181 -5 13 5 58 12 100 16 42 3 84 10 94
15 10 5 116 9 235 9 199 0 223 2 292 23 88 28 93 29 86 17z m-6803 -8 c-7 -2
-21 -2 -30 0 -10 3 -4 5 12 5 17 0 24 -2 18 -5z m1330 -6 c-2 -4 -3 -14 -3
-22 0 -27 -29 -29 -50 -4 -27 33 -25 36 18 34 20 0 36 -4 35 -8z m1360 6 c-7
-2 -21 -2 -30 0 -10 3 -4 5 12 5 17 0 24 -2 18 -5z m67 -3 c-20 -13 -40 -13
-40 0 0 6 12 10 28 10 21 0 24 -2 12 -10z m248 -7 c-3 -15 -16 -19 -73 -21
-53 -2 -67 0 -58 9 13 13 64 26 106 28 22 1 28 -3 25 -16z m-1778 -35 c0 -16
-11 -18 -98 -18 -54 0 -102 4 -108 10 -6 6 -40 4 -94 -4 -85 -14 -125 -12 -98
5 10 7 9 9 -4 9 -10 0 -18 5 -18 10 0 6 42 11 103 12 219 3 288 6 294 12 9 8
23 -15 23 -36z m2150 16 c0 -2 -9 0 -20 6 -11 6 -20 13 -20 16 0 2 9 0 20 -6
11 -6 20 -13 20 -16z m2003 19 c-7 -2 -21 -2 -30 0 -10 3 -4 5 12 5 17 0 24
-2 18 -5z m3848 -38 c-9 -30 -9 -30 -10 10 -1 25 2 36 9 29 6 -6 6 -21 1 -39z
m-8594 29 c-3 -3 -12 -4 -19 -1 -8 3 -5 6 6 6 11 1 17 -2 13 -5z m161 -21 c16
-16 15 -18 -13 -27 -16 -5 -23 0 -32 24 -11 29 -10 31 10 24 11 -4 27 -13 35
-21z m981 12 c22 -22 -83 -34 -132 -16 -14 6 -28 7 -31 3 -9 -8 -90 -11 -144
-5 -24 3 -40 8 -37 12 15 15 329 20 344 6z m4351 0 c0 -11 -12 -15 -45 -15
-33 0 -45 4 -45 15 0 11 12 15 45 15 33 0 45 -4 45 -15z m60 11 c0 -9 -30 -14
-35 -6 -4 6 3 10 14 10 12 0 21 -2 21 -4z m3096 -12 c-4 -9 -11 -36 -17 -59
-9 -34 -14 -42 -29 -38 -17 5 -18 8 -5 42 7 20 16 44 19 54 3 9 13 17 22 17
11 0 14 -5 10 -16z m-8563 -16 c4 -12 5 -23 4 -24 -1 -1 -73 -4 -160 -6 -153
-3 -158 -2 -155 17 3 19 11 20 115 21 62 0 116 3 120 7 3 4 21 7 39 7 24 0 33
-5 37 -22z m6076 -7 c-25 -10 -66 -23 -92 -29 -60 -16 -456 -62 -510 -61 -24
1 -31 3 -17 5 14 3 45 7 70 11 l45 7 -35 7 -35 6 40 3 c22 1 51 6 65 11 27 9
-14 7 -120 -7 -49 -7 -52 -8 -25 -15 l30 -7 -35 -1 c-20 0 -40 -5 -45 -10 -6
-5 -38 -11 -73 -13 -58 -3 -62 -2 -62 18 0 24 33 35 85 28 16 -2 66 3 110 11
85 15 386 33 470 28 28 -2 73 3 100 11 70 20 89 18 34 -3z m-3916 2 c-7 -2
-19 -2 -25 0 -7 3 -2 5 12 5 14 0 19 -2 13 -5z m-1880 -20 c-13 -2 -33 -2 -45
0 -13 2 -3 4 22 4 25 0 35 -2 23 -4z m400 -10 c-13 -2 -33 -2 -45 0 -13 2 -3
4 22 4 25 0 35 -2 23 -4z m229 0 c-40 -2 -103 -2 -140 0 -37 2 -4 3 73 3 77 0
107 -2 67 -3z m131 0 c-7 -2 -21 -2 -30 0 -10 3 -4 5 12 5 17 0 24 -2 18 -5z
m1717 -3 c0 -13 -40 -13 -60 0 -11 7 -5 10 23 10 20 0 37 -4 37 -10z m2455
-61 c-14 -51 -43 -105 -52 -96 -2 3 6 27 18 54 13 26 22 58 21 71 -2 14 3 22
12 22 12 0 12 -7 1 -51z m55 34 c0 -10 -5 -25 -10 -33 -7 -11 -10 -7 -10 18 0
17 5 32 10 32 6 0 10 -8 10 -17z m-7120 -103 c0 -5 -7 -10 -15 -10 -8 0 -15 5
-15 10 0 6 7 10 15 10 8 0 15 -4 15 -10z"/>
<path d="M2975 5380 c-3 -5 1 -10 9 -10 8 0 18 5 21 10 3 6 -1 10 -9 10 -8 0
-18 -4 -21 -10z"/>
<path d="M3018 5369 c-16 -17 -14 -29 5 -29 6 0 7 3 4 7 -4 3 -2 12 5 20 17
20 6 22 -14 2z"/>
<path d="M2920 5309 c-32 -19 -26 -19 17 -2 11 4 14 3 9 -5 -4 -7 -2 -12 6
-12 8 -1 6 -6 -6 -15 -11 -8 -15 -15 -9 -15 15 0 26 18 29 47 3 28 -1 28 -46
2z"/>
<path d="M2845 5290 c3 -5 0 -10 -7 -10 -7 0 -18 -11 -24 -24 l-12 -25 29 21
c29 22 39 48 18 48 -5 0 -7 -4 -4 -10z"/>
<path d="M2873 5274 c0 -8 2 -12 5 -9 3 2 13 0 23 -6 27 -14 24 -4 -4 14 -20
13 -24 13 -24 1z"/>
<path d="M3000 5279 c0 -5 5 -7 10 -4 6 3 10 8 10 11 0 2 -4 4 -10 4 -5 0 -10
-5 -10 -11z"/>
<path d="M2844 5238 c-5 -8 -2 -9 9 -5 22 8 22 -2 0 -20 -16 -13 -16 -13 5 -3
12 6 22 15 22 21 0 6 6 7 13 3 6 -4 9 -3 4 1 -12 14 -45 16 -53 3z"/>
<path d="M2930 5199 c-29 -19 -47 -26 -54 -19 -6 6 -14 10 -20 10 -5 0 -1 -6
9 -14 14 -10 25 -11 38 -5 9 6 23 7 29 3 7 -4 8 -3 4 4 -4 7 3 17 18 24 14 6
26 15 26 20 0 10 3 11 -50 -23z"/>
<path d="M2787 5202 c-3 -4 1 -13 9 -19 7 -7 15 -9 17 -5 3 4 -1 13 -9 19 -7
7 -15 9 -17 5z"/>
<path d="M2845 5150 c-3 -6 1 -7 9 -4 18 7 21 14 7 14 -6 0 -13 -4 -16 -10z"/>
<path d="M2960 5143 c-42 -37 -89 -73 -96 -73 -5 0 -22 -11 -38 -25 -16 -14
-26 -25 -22 -25 7 0 85 52 116 77 8 6 26 21 40 32 14 10 23 21 20 23 -3 3 -12
-1 -20 -9z"/>
<path d="M2879 5133 c-13 -16 -12 -17 4 -4 16 13 21 21 13 21 -2 0 -10 -8 -17
-17z"/>
<path d="M2800 5085 c-6 -8 -10 -20 -7 -27 4 -8 6 -7 6 5 1 9 7 17 15 17 8 0
18 5 21 10 10 16 -21 12 -35 -5z"/>
<path d="M2954 5079 c-3 -6 -2 -15 3 -20 5 -5 9 -1 9 11 0 23 -2 24 -12 9z"/>
<path d="M2770 5056 c0 -9 -4 -14 -10 -11 -5 3 -10 1 -10 -4 0 -6 5 -11 10
-11 13 0 25 28 16 37 -3 4 -6 -1 -6 -11z"/>
<path d="M2889 5030 c-13 -10 -18 -19 -11 -20 6 0 12 5 12 11 0 6 7 8 16 5 8
-3 12 -2 9 3 -3 5 3 12 12 14 15 4 15 5 2 6 -9 0 -27 -8 -40 -19z"/>
<path d="M2774 5004 c5 -13 2 -15 -14 -11 -11 3 -23 1 -26 -4 -3 -5 9 -9 25
-9 24 0 31 4 31 20 0 11 -5 20 -11 20 -6 0 -8 -7 -5 -16z"/>
<path d="M2801 4972 c-26 -14 -39 -28 -32 -30 7 -2 16 0 20 5 3 6 16 13 28 17
11 4 24 13 27 21 3 8 4 15 3 14 -1 -1 -22 -13 -46 -27z"/>
<path d="M2845 4961 c-8 -15 32 -24 52 -11 15 8 12 9 -11 4 -21 -5 -27 -4 -22
5 4 6 3 11 -3 11 -5 0 -12 -4 -16 -9z"/>
<path d="M2886 4901 c-4 -5 3 -7 14 -4 23 6 26 13 6 13 -8 0 -17 -4 -20 -9z"/>
<path d="M2788 4856 c-27 -20 -22 -26 12 -13 17 6 30 15 30 19 0 12 -23 9 -42
-6z"/>
<path d="M2793 4820 c-12 -9 -20 -20 -17 -23 4 -3 15 3 27 13 27 26 19 34 -10
10z"/>
<path d="M2721 4784 c-11 -8 -21 -20 -21 -26 0 -6 10 -3 21 8 16 14 23 15 26
7 7 -19 48 -16 85 7 39 24 31 26 -19 5 -43 -18 -38 -18 -56 -1 -12 13 -17 13
-36 0z"/>
<path d="M2725 4740 c3 -5 10 -10 16 -10 5 0 9 5 9 10 0 6 -7 10 -16 10 -8 0
-12 -4 -9 -10z"/>
<path d="M2775 4740 c-3 -5 -1 -10 4 -10 6 0 11 5 11 10 0 6 -2 10 -4 10 -3 0
-8 -4 -11 -10z"/>
<path d="M2810 4739 c0 -5 5 -7 10 -4 6 3 10 8 10 11 0 2 -4 4 -10 4 -5 0 -10
-5 -10 -11z"/>
<path d="M2850 4741 c0 -10 -39 -27 -53 -23 -4 1 -3 -6 2 -17 6 -10 7 -21 4
-25 -3 -3 -1 -6 5 -6 17 0 24 18 10 24 -7 4 -3 4 10 2 20 -4 21 -2 10 11 -11
14 -10 15 9 9 12 -4 24 -2 28 3 3 7 0 8 -10 5 -11 -5 -14 -2 -9 10 3 9 3 16 0
16 -3 0 -6 -4 -6 -9z"/>
<path d="M2855 4684 c-11 -8 -19 -18 -18 -22 2 -4 -7 -7 -20 -7 -15 0 -23 -7
-25 -24 -2 -14 0 -21 6 -17 6 3 13 0 15 -6 3 -7 6 -3 6 8 1 13 12 27 29 35 15
8 28 22 30 32 3 20 3 21 -23 1z"/>
<path d="M2729 4673 c-1 -10 -1 -22 0 -26 1 -5 -2 -6 -7 -3 -5 3 -8 -14 -7
-37 3 -56 3 -55 21 -29 8 12 22 22 30 22 9 0 14 7 12 18 -2 9 -11 16 -21 16
-9 -1 -14 2 -11 7 3 5 12 9 20 9 20 0 17 18 -5 30 -27 14 -31 13 -32 -7z"/>
<path d="M2674 4623 c1 -17 14 -33 27 -33 10 0 6 35 -5 42 -18 12 -24 9 -22
-9z"/>
<path d="M2825 4550 c3 -5 8 -10 11 -10 2 0 4 5 4 10 0 6 -5 10 -11 10 -5 0
-7 -4 -4 -10z"/>
<path d="M9823 5433 c15 -2 37 -2 50 0 12 2 0 4 -28 4 -27 0 -38 -2 -22 -4z"/>
<path d="M9918 5273 c7 -3 16 -2 19 1 4 3 -2 6 -13 5 -11 0 -14 -3 -6 -6z"/>
<path d="M10778 3945 c-2 -19 0 -35 4 -35 4 0 8 16 8 35 0 19 -2 35 -4 35 -2
0 -6 -16 -8 -35z"/>
<path d="M10756 3859 c-11 -18 -14 -29 -8 -25 6 3 12 0 15 -6 4 -10 7 -11 18
0 10 9 10 12 1 12 -9 0 -10 5 -2 19 23 43 1 43 -24 0z"/>
<path d="M10543 3840 c-13 -5 -23 -14 -23 -20 0 -6 12 -4 30 5 45 23 39 33 -7
15z"/>
<path d="M10637 3843 c-4 -3 -7 -11 -7 -17 0 -6 5 -5 12 2 6 6 9 14 7 17 -3 3
-9 2 -12 -2z"/>
<path d="M10737 3803 c-4 -3 -7 -11 -7 -17 0 -6 5 -5 12 2 6 6 9 14 7 17 -3 3
-9 2 -12 -2z"/>
<path d="M10620 3760 c-9 -6 -10 -10 -3 -10 6 0 15 5 18 10 8 12 4 12 -15 0z"/>
<path d="M10680 3750 c0 -13 11 -13 30 0 12 8 11 10 -7 10 -13 0 -23 -4 -23
-10z"/>
<path d="M6765 4440 c-3 -5 -1 -10 4 -10 6 0 11 5 11 10 0 6 -2 10 -4 10 -3 0
-8 -4 -11 -10z"/>
<path d="M6730 4365 c-11 -13 -10 -14 4 -9 9 3 16 10 16 15 0 13 -6 11 -20 -6z"/>
<path d="M1760 5315 c-7 -8 -8 -15 -2 -15 5 0 15 7 22 15 7 8 8 15 2 15 -5 0
-15 -7 -22 -15z"/>
<path d="M6190 4420 c0 -5 5 -10 10 -10 6 0 10 5 10 10 0 6 -4 10 -10 10 -5 0
-10 -4 -10 -10z"/>
<path d="M6010 4389 c0 -5 5 -7 10 -4 6 3 10 8 10 11 0 2 -4 4 -10 4 -5 0 -10
-5 -10 -11z"/>
<path d="M5985 4380 c-3 -5 -1 -10 4 -10 6 0 11 5 11 10 0 6 -2 10 -4 10 -3 0
-8 -4 -11 -10z"/>
<path d="M9786 4533 c-6 -14 -5 -15 5 -6 7 7 10 15 7 18 -3 3 -9 -2 -12 -12z"/>
<path d="M9575 4479 c-11 -17 1 -21 15 -4 8 9 8 15 2 15 -6 0 -14 -5 -17 -11z"/>
<path d="M9782 4418 c2 -13 11 -24 21 -26 15 -3 16 0 6 22 -15 32 -32 34 -27
4z"/>
<path d="M9704 4401 c4 -5 0 -11 -6 -14 -7 -2 -10 -8 -6 -12 8 -9 38 12 38 26
0 5 -7 9 -16 9 -8 0 -13 -4 -10 -9z"/>
<path d="M9723 4335 c2 -5 10 -10 17 -10 7 0 15 5 17 10 2 6 -6 11 -17 11 -11
0 -19 -5 -17 -11z"/>
<path d="M1836 5213 c-6 -14 -5 -15 5 -6 7 7 10 15 7 18 -3 3 -9 -2 -12 -12z"/>
<path d="M10356 4915 c24 -39 24 -40 24 -28 0 6 -9 21 -21 34 l-20 24 17 -30z"/>
<path d="M10382 4780 c0 -14 2 -19 5 -12 2 6 2 18 0 25 -3 6 -5 1 -5 -13z"/>
<path d="M9130 4530 c0 -5 5 -10 10 -10 6 0 10 5 10 10 0 6 -4 10 -10 10 -5 0
-10 -4 -10 -10z"/>
<path d="M8476 4424 c-9 -22 3 -32 14 -14 12 19 12 30 1 30 -5 0 -12 -7 -15
-16z"/>
<path d="M8540 4420 c-9 -6 -10 -10 -3 -10 6 0 15 5 18 10 8 12 4 12 -15 0z"/>
<path d="M8490 4380 c0 -5 6 -10 14 -10 8 0 18 5 21 10 3 6 -3 10 -14 10 -12
0 -21 -4 -21 -10z"/>
<path d="M8440 4340 c0 -5 5 -10 10 -10 6 0 10 5 10 10 0 6 -4 10 -10 10 -5 0
-10 -4 -10 -10z"/>
<path d="M3935 4571 c-6 -5 -26 -14 -45 -19 l-35 -10 32 -1 c17 -1 35 4 38 9
3 6 15 10 26 10 11 0 17 5 14 10 -8 12 -18 13 -30 1z"/>
<path d="M3977 4533 c-9 -2 -15 -9 -12 -14 9 -14 32 -11 39 6 6 15 4 16 -27 8z"/>
<path d="M3925 4490 c-3 -5 -2 -10 4 -10 5 0 13 5 16 10 3 6 2 10 -4 10 -5 0
-13 -4 -16 -10z"/>
<path d="M3965 4480 c-3 -6 1 -7 9 -4 18 7 21 14 7 14 -6 0 -13 -4 -16 -10z"/>
<path d="M3875 4463 c-8 -22 -7 -23 15 -23 13 0 20 7 20 18 0 22 -27 25 -35 5z"/>
<path d="M4040 4440 c0 -5 7 -10 15 -10 8 0 15 5 15 10 0 6 -7 10 -15 10 -8 0
-15 -4 -15 -10z"/>
<path d="M4975 4520 c-3 -5 -1 -10 4 -10 6 0 11 5 11 10 0 6 -2 10 -4 10 -3 0
-8 -4 -11 -10z"/>
<path d="M5259 4493 c-13 -16 -12 -17 4 -4 16 13 21 21 13 21 -2 0 -10 -8 -17
-17z"/>
<path d="M5205 4450 c3 -5 11 -10 16 -10 6 0 7 5 4 10 -3 6 -11 10 -16 10 -6
0 -7 -4 -4 -10z"/>
<path d="M5205 4409 c-11 -16 -1 -19 13 -3 7 8 8 14 3 14 -5 0 -13 -5 -16 -11z"/>
<path d="M5225 4389 c-11 -16 -1 -19 13 -3 7 8 8 14 3 14 -5 0 -13 -5 -16 -11z"/>
<path d="M5237 4366 c-3 -8 0 -17 7 -19 10 -4 12 1 9 14 -6 23 -9 24 -16 5z"/>
<path d="M4449 4689 c16 -6 28 -6 35 1 7 7 -1 10 -24 9 -33 0 -34 -1 -11 -10z"/>
<path d="M4523 4675 c-6 -7 -9 -16 -6 -19 4 -3 -1 -6 -10 -6 -9 0 -17 -4 -17
-9 0 -6 16 -3 36 5 63 26 68 11 9 -31 -18 -13 -18 -14 -2 -15 9 0 17 5 17 11
0 5 4 8 9 4 5 -3 12 -1 16 5 11 18 35 12 28 -7 -5 -15 -3 -16 7 -6 11 10 8 18
-16 41 -36 36 -56 43 -71 27z"/>
<path d="M4407 4673 c-12 -12 -7 -22 8 -17 8 4 15 10 15 15 0 11 -14 12 -23 2z"/>
<path d="M4472 4629 c2 -36 2 -37 25 -22 26 17 30 25 8 17 -9 -4 -18 2 -25 17
-8 21 -9 20 -8 -12z"/>
<path d="M4615 4561 c-3 -11 -12 -18 -19 -15 -7 3 -16 -3 -20 -13 -6 -15 -9
-15 -16 -3 -7 12 -10 12 -16 -3 -10 -27 2 -32 31 -13 14 9 25 14 25 10 0 -10
30 17 41 38 7 14 6 18 -5 18 -8 0 -17 -9 -21 -19z"/>
<path d="M4501 4532 c-17 -31 -13 -40 5 -14 9 13 14 26 11 29 -3 2 -10 -4 -16
-15z"/>
<path d="M4579 4462 c9 -7 10 -11 2 -15 -7 -4 -8 -5 0 -3 15 2 13 20 -3 24
-10 3 -10 2 1 -6z"/>
<path d="M12126 4517 c3 -10 9 -15 12 -12 3 3 0 11 -7 18 -10 9 -11 8 -5 -6z"/>
<path d="M3588 4763 c10 -4 7 -9 -9 -17 -23 -11 -34 -42 -18 -52 18 -10 31 7
17 23 -11 14 -10 15 12 9 17 -5 21 -4 11 2 -9 7 -10 12 -2 16 17 11 13 26 -6
25 -12 0 -14 -2 -5 -6z"/>
<path d="M4731 4604 c0 -11 3 -14 6 -6 3 7 2 16 -1 19 -3 4 -6 -2 -5 -13z"/>
<path d="M8918 4503 c7 -3 16 -2 19 1 4 3 -2 6 -13 5 -11 0 -14 -3 -6 -6z"/>
<path d="M5685 4540 c-3 -5 -1 -10 4 -10 6 0 11 5 11 10 0 6 -2 10 -4 10 -3 0
-8 -4 -11 -10z"/>
<path d="M12020 4521 c0 -6 4 -13 10 -16 6 -3 7 1 4 9 -7 18 -14 21 -14 7z"/>
<path d="M7726 4475 c-21 -7 -44 -19 -50 -25 -6 -7 4 -5 23 5 18 9 63 20 100
25 63 7 64 7 16 8 -27 1 -67 -5 -89 -13z"/>
<path d="M7640 4430 c-8 -5 -12 -12 -9 -15 4 -3 12 1 19 10 14 17 11 19 -10 5z"/>
<path d="M6930 4355 c-18 -19 -37 -32 -41 -30 -4 3 -12 -9 -18 -26 -7 -22 -15
-29 -26 -25 -8 3 -15 2 -16 -2 0 -4 -2 -15 -4 -24 -3 -19 10 -25 19 -9 4 5 0
12 -6 15 -7 3 -4 4 7 1 22 -5 50 28 39 46 -3 6 0 9 8 7 11 -2 88 65 88 78 0
12 -20 0 -50 -31z"/>
<path d="M4410 4429 c0 -5 5 -7 10 -4 6 3 10 8 10 11 0 2 -4 4 -10 4 -5 0 -10
-5 -10 -11z"/>
<path d="M12251 4118 c-1 -15 4 -30 9 -33 12 -7 12 12 0 40 -8 18 -9 17 -9 -7z"/>
<path d="M3325 4050 c-3 -5 -2 -10 4 -10 5 0 13 5 16 10 3 6 2 10 -4 10 -5 0
-13 -4 -16 -10z"/>
<path d="M3109 3813 c-13 -16 -12 -17 4 -4 16 13 21 21 13 21 -2 0 -10 -8 -17
-17z"/>
<path d="M8500 3040 c0 -23 137 -59 230 -61 84 -2 253 23 280 42 12 8 9 9 -10
5 -85 -21 -144 -28 -208 -23 -43 3 -70 2 -67 -4 8 -11 9 -11 -78 2 -40 6 -87
19 -105 30 -38 22 -42 23 -42 9z"/>
<path d="M9030 3039 c0 -5 5 -7 10 -4 6 3 10 8 10 11 0 2 -4 4 -10 4 -5 0 -10
-5 -10 -11z"/>
<path d="M7003 3214 c-15 -16 -17 -28 -3 -19 6 3 10 1 10 -4 0 -13 27 -15 34
-2 3 4 -2 15 -12 24 -14 13 -19 13 -29 1z"/>
<path d="M6950 3169 c0 -5 5 -7 10 -4 6 3 10 8 10 11 0 2 -4 4 -10 4 -5 0 -10
-5 -10 -11z"/>
<path d="M6860 3150 c-9 -6 -10 -10 -3 -10 6 0 15 5 18 10 8 12 4 12 -15 0z"/>
<path d="M6990 3149 c0 -5 5 -7 10 -4 6 3 10 8 10 11 0 2 -4 4 -10 4 -5 0 -10
-5 -10 -11z"/>
<path d="M3960 3020 c-32 -7 -31 -8 15 -7 28 0 59 4 70 8 26 10 -35 10 -85 -1z"/>
<path d="M9563 2953 c9 -2 23 -2 30 0 6 3 -1 5 -18 5 -16 0 -22 -2 -12 -5z"/>
<path d="M9818 2953 c7 -3 16 -2 19 1 4 3 -2 6 -13 5 -11 0 -14 -3 -6 -6z"/>
<path d="M1578 5503 c7 -3 16 -2 19 1 4 3 -2 6 -13 5 -11 0 -14 -3 -6 -6z"/>
<path d="M9340 5501 c0 -6 5 -13 10 -16 6 -3 10 1 10 9 0 9 -4 16 -10 16 -5 0
-10 -4 -10 -9z"/>
<path d="M1965 5444 c-9 -10 -12 -20 -7 -23 5 -3 27 -74 50 -157 41 -145 80
-267 81 -252 1 4 -20 81 -45 170 -29 101 -47 185 -48 220 -1 62 -5 67 -31 42z"/>
<path d="M4438 5425 c-58 -19 -125 -83 -161 -155 -28 -57 -33 -57 -17 -1 8 28
7 32 -3 22 -6 -6 -12 -36 -12 -66 0 -30 -4 -48 -8 -42 -5 7 -5 -10 -2 -38 15
-113 98 -205 231 -255 14 -6 23 -7 21 -2 -3 4 21 7 54 7 54 0 61 3 99 40 22
21 40 35 40 31 0 -4 -14 -21 -31 -37 -17 -16 -27 -29 -21 -29 19 0 94 93 120
148 47 103 28 238 -46 315 -62 66 -172 91 -264 62z m192 -40 c77 -40 128 -156
108 -249 -12 -59 -27 -89 -64 -131 l-27 -30 18 30 c10 17 24 39 32 50 26 39
12 37 -16 -2 -29 -40 -98 -100 -105 -92 -7 7 53 56 60 50 4 -3 4 2 1 12 -7 18
25 72 35 61 8 -8 38 73 38 102 0 63 -70 146 -157 186 -36 16 -49 17 -83 8 -44
-12 -120 -73 -120 -96 0 -8 -7 -14 -15 -14 -13 0 -14 4 -4 23 22 41 87 88 149
108 32 10 117 1 150 -16z m-35 -45 c3 -5 2 -10 -4 -10 -5 0 -13 5 -16 10 -3 6
-2 10 4 10 5 0 13 -4 16 -10z m45 -46 c0 -2 -9 0 -20 6 -11 6 -20 13 -20 16 0
2 9 0 20 -6 11 -6 20 -13 20 -16z m-307 -48 c6 -15 -1 -26 -15 -26 -4 0 -8 9
-8 20 0 23 15 27 23 6z m16 -43 c-9 -10 -8 -13 0 -13 8 0 10 -8 6 -21 -5 -15
-4 -19 4 -15 6 4 11 1 11 -8 0 -20 -17 -30 -23 -14 -4 8 -6 7 -6 -4 -1 -9 -7
-18 -13 -21 -10 -4 -10 -7 0 -18 6 -7 12 -23 12 -36 0 -13 3 -23 8 -23 4 0 15
-14 24 -30 19 -34 16 -38 -12 -12 -58 53 -69 229 -16 229 12 0 13 -4 5 -14z
m-92 -80 c-3 -10 -5 -4 -5 12 0 17 2 24 5 18 2 -7 2 -21 0 -30z m193 23 c0 -3
-4 -8 -10 -11 -5 -3 -10 -1 -10 4 0 6 5 11 10 11 6 0 10 -2 10 -4z m-53 -49
c2 -12 4 -28 5 -35 1 -7 8 -10 17 -7 13 5 14 4 4 -6 -18 -18 -16 -29 5 -23 13
5 14 4 3 -4 -18 -13 -57 4 -65 27 -3 9 -10 26 -16 39 -9 21 -8 23 10 17 15 -5
20 -2 20 11 0 23 13 9 17 -19z m173 -47 c0 -5 -7 -10 -15 -10 -8 0 -15 -7 -15
-15 0 -8 -2 -15 -4 -15 -2 0 -13 -3 -23 -6 -17 -5 -17 -5 0 6 9 6 17 17 17 25
0 7 8 16 18 18 9 3 18 5 20 6 1 0 2 -3 2 -9z m-15 -100 c-3 -5 -11 -10 -16
-10 -6 0 -7 5 -4 10 3 6 11 10 16 10 6 0 7 -4 4 -10z m63 -5 c-6 -7 -41 -15
-83 -21 -16 -2 -5 4 25 14 51 17 71 20 58 7z m-105 -2 c-7 -2 -21 -2 -30 0
-10 3 -4 5 12 5 17 0 24 -2 18 -5z"/>
<path d="M1521 5074 c0 -11 3 -14 6 -6 3 7 2 16 -1 19 -3 4 -6 -2 -5 -13z"/>
<path d="M1534 5033 c3 -10 21 -67 40 -128 18 -60 46 -154 61 -208 15 -53 30
-96 32 -94 9 10 -122 447 -134 447 -2 0 -2 -8 1 -17z"/>
<path d="M2106 4950 c4 -14 13 -38 20 -55 11 -24 13 -25 8 -5 -4 14 -13 39
-20 55 -11 24 -13 25 -8 5z"/>
<path d="M4535 4865 c29 -13 45 -11 45 3 0 4 -17 8 -38 8 l-37 2 30 -13z"/>
<path d="M2161 4784 c0 -11 3 -14 6 -6 3 7 2 16 -1 19 -3 4 -6 -2 -5 -13z"/>
<path d="M2201 4660 c0 -8 4 -24 9 -35 5 -13 9 -14 9 -5 0 8 -4 24 -9 35 -5
13 -9 14 -9 5z"/>
<path d="M12842 4600 c0 -14 2 -19 5 -12 2 6 2 18 0 25 -3 6 -5 1 -5 -13z"/>
<path d="M1671 4574 c0 -11 3 -14 6 -6 3 7 2 16 -1 19 -3 4 -6 -2 -5 -13z"/>
<path d="M12831 4554 c0 -11 3 -14 6 -6 3 7 2 16 -1 19 -3 4 -6 -2 -5 -13z"/>
<path d="M1682 4540 c0 -8 4 -26 8 -40 6 -20 8 -21 8 -5 0 11 -3 29 -8 40 -5
12 -8 14 -8 5z"/>
<path d="M12821 4504 c0 -11 3 -14 6 -6 3 7 2 16 -1 19 -3 4 -6 -2 -5 -13z"/>
<path d="M7143 4440 c0 -36 2 -50 4 -32 2 17 2 47 0 65 -2 17 -4 3 -4 -33z"/>
<path d="M3357 4405 c-42 -25 -77 -48 -77 -51 0 -3 15 3 33 14 17 11 56 32 85
47 28 15 52 29 52 31 0 10 -21 1 -93 -41z"/>
<path d="M1711 4424 c0 -11 3 -14 6 -6 3 7 2 16 -1 19 -3 4 -6 -2 -5 -13z"/>
<path d="M12096 4387 c3 -10 9 -15 12 -12 3 3 0 11 -7 18 -10 9 -11 8 -5 -6z"/>
<path d="M5445 4300 c-3 -5 -2 -10 4 -10 5 0 13 5 16 10 3 6 2 10 -4 10 -5 0
-13 -4 -16 -10z"/>
<path d="M3213 4283 c9 -2 23 -2 30 0 6 3 -1 5 -18 5 -16 0 -22 -2 -12 -5z"/>
<path d="M12686 4084 c-4 -14 -5 -28 -3 -31 3 -2 8 8 11 23 4 14 5 28 3 31 -3
2 -8 -8 -11 -23z"/>
<path d="M12661 3994 c0 -11 3 -14 6 -6 3 7 2 16 -1 19 -3 4 -6 -2 -5 -13z"/>
<path d="M7101 3540 c0 -14 6 -38 14 -55 18 -40 18 -21 1 35 -10 32 -15 38
-15 20z"/>
<path d="M4212 3425 l1 -90 7 80 c3 44 2 84 -2 90 -4 5 -7 -31 -6 -80z"/>
<path d="M5382 3340 c0 -14 2 -19 5 -12 2 6 2 18 0 25 -3 6 -5 1 -5 -13z"/>
<path d="M5393 3260 c0 -25 2 -35 4 -22 2 12 2 32 0 45 -2 12 -4 2 -4 -23z"/>
<path d="M10941 3284 c0 -11 3 -14 6 -6 3 7 2 16 -1 19 -3 4 -6 -2 -5 -13z"/>
<path d="M2925 3270 c15 -51 47 -131 51 -128 4 4 -45 140 -53 148 -3 3 -2 -6
2 -20z"/>
<path d="M5821 3254 c0 -11 3 -14 6 -6 3 7 2 16 -1 19 -3 4 -6 -2 -5 -13z"/>
<path d="M10951 3250 c0 -8 4 -22 9 -30 12 -18 12 -2 0 25 -6 13 -9 15 -9 5z"/>
<path d="M2986 3117 c3 -10 9 -15 12 -12 3 3 0 11 -7 18 -10 9 -11 8 -5 -6z"/>
<path d="M6094 2971 c11 -11 23 -21 28 -21 14 0 -1 19 -25 31 -22 12 -22 12
-3 -10z"/>
<path d="M3255 2967 c28 -17 341 -16 375 1 21 11 15 11 -40 5 -84 -9 -263 -10
-315 -1 -34 6 -37 5 -20 -5z"/>
<path d="M12380 2969 c0 -5 5 -7 10 -4 6 3 10 8 10 11 0 2 -4 4 -10 4 -5 0
-10 -5 -10 -11z"/>
<path d="M3678 2963 c12 -2 30 -2 40 0 9 3 -1 5 -23 4 -22 0 -30 -2 -17 -4z"/>
<path d="M7147 2963 c18 -2 50 -2 70 0 21 2 7 4 -32 4 -38 0 -55 -2 -38 -4z"/>
<path d="M2210 2910 c0 -5 5 -10 11 -10 5 0 7 5 4 10 -3 6 -8 10 -11 10 -2 0
-4 -4 -4 -10z"/>
<path d="M9310 2910 c0 -5 5 -10 10 -10 6 0 10 5 10 10 0 6 -4 10 -10 10 -5 0
-10 -4 -10 -10z"/>
<path d="M3953 2903 c20 -2 54 -2 75 0 20 2 3 4 -38 4 -41 0 -58 -2 -37 -4z"/>
<path d="M4088 2903 c7 -3 16 -2 19 1 4 3 -2 6 -13 5 -11 0 -14 -3 -6 -6z"/>
<path d="M4128 2903 c6 -2 18 -2 25 0 6 3 1 5 -13 5 -14 0 -19 -2 -12 -5z"/>
<path d="M4198 2903 c7 -3 16 -2 19 1 4 3 -2 6 -13 5 -11 0 -14 -3 -6 -6z"/>
<path d="M7653 2904 c10 -10 667 -17 667 -8 0 5 -151 10 -336 11 -185 1 -334
0 -331 -3z"/>
<path d="M8330 2900 c0 -5 7 -10 16 -10 8 0 12 5 9 10 -3 6 -10 10 -16 10 -5
0 -9 -4 -9 -10z"/>
<path d="M8408 2903 c7 -3 16 -2 19 1 4 3 -2 6 -13 5 -11 0 -14 -3 -6 -6z"/>
<path d="M8468 2903 c17 -2 47 -2 65 0 17 2 3 4 -33 4 -36 0 -50 -2 -32 -4z"/>
<path d="M10175 2899 c-82 -4 -201 -13 -263 -19 -62 -7 -134 -10 -160 -6 -43
5 -45 4 -28 -9 25 -19 52 -19 213 0 70 8 220 19 332 24 112 6 206 13 209 16 7
6 -108 4 -303 -6z"/>
<path d="M6998 2893 c6 -2 18 -2 25 0 6 3 1 5 -13 5 -14 0 -19 -2 -12 -5z"/>
<path d="M7303 2893 c9 -2 23 -2 30 0 6 3 -1 5 -18 5 -16 0 -22 -2 -12 -5z"/>
<path d="M7468 2893 c18 -2 45 -2 60 0 15 2 0 4 -33 4 -33 0 -45 -2 -27 -4z"/>
<path d="M13438 2883 c7 -3 16 -2 19 1 4 3 -2 6 -13 5 -11 0 -14 -3 -6 -6z"/>
<path d="M1590 2809 c43 -7 451 -10 420 -3 -8 1 -116 4 -240 6 -124 2 -205 1
-180 -3z"/>
<path d="M3130 2779 c100 -7 896 -12 889 -5 -2 2 -224 6 -494 8 -269 2 -447 1
-395 -3z"/>
<path d="M4034 2778 c-3 -4 13 -8 35 -8 23 0 41 4 41 9 0 11 -69 10 -76 -1z"/>
<path d="M4145 2780 c4 -6 11 -8 16 -5 14 9 11 15 -7 15 -8 0 -12 -5 -9 -10z"/>
<path d="M4238 2783 c7 -3 16 -2 19 1 4 3 -2 6 -13 5 -11 0 -14 -3 -6 -6z"/>
<path d="M4308 2783 c17 -2 47 -2 65 0 17 2 3 4 -33 4 -36 0 -50 -2 -32 -4z"/>
<path d="M4428 2783 c6 -2 18 -2 25 0 6 3 1 5 -13 5 -14 0 -19 -2 -12 -5z"/>
<path d="M4528 2783 c6 -2 18 -2 25 0 6 3 1 5 -13 5 -14 0 -19 -2 -12 -5z"/>
<path d="M4778 2783 c7 -3 16 -2 19 1 4 3 -2 6 -13 5 -11 0 -14 -3 -6 -6z"/>
<path d="M4888 2783 c7 -3 16 -2 19 1 4 3 -2 6 -13 5 -11 0 -14 -3 -6 -6z"/>
<path d="M4938 2783 c6 -2 18 -2 25 0 6 3 1 5 -13 5 -14 0 -19 -2 -12 -5z"/>
<path d="M2420 2610 c8 -5 22 -9 30 -9 10 0 8 3 -5 9 -27 12 -43 12 -25 0z"/>
</g>
</svg>
